<svg xmlns="http://www.w3.org/2000/svg" viewBox="0 0 480 280" role="img" aria-labelledby="title desc" data-catalog-id="carronade-6" data-kind="carronade">
<title id="title">6 磅卡隆炮</title>
<desc id="desc">卡隆炮；6 磅炮弹；近距；炮架承重等级 1；火力 14；每炮组弹耗系数 0.35。最小的卡隆炮，让轻型船体在贴近时拥有超出承重的近战火力。 原创结构示意，不是比例工程图。</desc>
<metadata id="naval-spec">{&quot;id&quot;:&quot;carronade-6&quot;,&quot;name&quot;:&quot;6 磅卡隆炮&quot;,&quot;kind&quot;:&quot;carronade&quot;,&quot;range&quot;:&quot;close&quot;,&quot;weight&quot;:1,&quot;shot&quot;:&quot;6 磅炮弹&quot;,&quot;firepower&quot;:14,&quot;ammoCost&quot;:0.35,&quot;boarding&quot;:4}</metadata>
<defs>
  <linearGradient id="iron" x2="0" y2="1"><stop stop-color="#233943"/><stop offset=".23" stop-color="#afb8ad"/><stop offset=".5" stop-color="#5a7071"/><stop offset="1" stop-color="#1c333e"/></linearGradient>
  <linearGradient id="bronze" x2="0" y2="1"><stop stop-color="#78633e"/><stop offset=".23" stop-color="#e9cb84"/><stop offset=".57" stop-color="#a18445"/><stop offset="1" stop-color="#4d5a49"/></linearGradient>
  <linearGradient id="wood" x2=".15" y2="1"><stop stop-color="#d9b074"/><stop offset=".5" stop-color="#a97a45"/><stop offset="1" stop-color="#634c35"/></linearGradient>
  <radialGradient id="shot" cx=".3" cy=".2"><stop stop-color="#9ba89e"/><stop offset="1" stop-color="#213e45"/></radialGradient>
</defs>
<g data-mount="slide" stroke-linecap="round" stroke-linejoin="round"><ellipse cx="249" cy="245" rx="177" ry="8" fill="#274d51" opacity=".14"/><path d="M165 190H366L379 212H152Z" fill="url(#wood)" stroke="#30463e" stroke-width="2" /><rect x="171" y="174" width="175" height="17" fill="url(#wood)" stroke="#314740" stroke-width="2"/><path d="M191 176V162H309V176M160 212H373M200 215V232M350 215V232" fill="none" stroke="#4a635b" stroke-width="7" /><path d="M308 168v-33m-9 6h18" fill="none" stroke="#516a60" stroke-width="4" /><ellipse cx="185" cy="215" rx="7" ry="8" fill="url(#iron)" /><ellipse cx="359" cy="215" rx="7" ry="8" fill="url(#iron)" /><g data-barrel="carronade-6" transform="rotate(0 269 137)"><path d="M199.5 123.1092L215.5 123.448Q277.875 126.1584 321 120.06Q352 120.06 354 137Q352 153.94 321 153.94Q277.875 147.8416 215.5 150.552H199.5Z" fill="url(#iron)" stroke="#253c40" stroke-width="2" /><ellipse cx="359" cy="137" rx="9" ry="7" fill="url(#iron)" stroke="#33413b" stroke-width="1.5"/><rect x="199.5" y="121.45" width="5" height="31.1" fill="url(#iron)" rx="2" stroke="#4a584b" stroke-width="1"/><rect x="213.25" y="121.11" width="5" height="31.78" fill="url(#iron)" rx="2" stroke="#4a584b" stroke-width="1"/><rect x="275.13" y="119.58" width="5" height="34.84" fill="url(#iron)" rx="2" stroke="#4a584b" stroke-width="1"/><rect x="321.88" y="118.43" width="5" height="37.14" fill="url(#iron)" rx="2" stroke="#4a584b" stroke-width="1"/><path d="M212.5 128.1912Q282 128.1912 334 125.142" fill="none" stroke="#d3d4bd" stroke-width="1.8" /><ellipse cx="199.5" cy="137" rx="5" ry="15.25" fill="url(#iron)" stroke="#233a3e" stroke-width="1.8"/><ellipse cx="198.5" cy="137" rx="2.37" ry="9.32" fill="#102831" stroke="#839385" stroke-width="1"/></g><ellipse cx="268" cy="153" rx="10" ry="10" fill="url(#iron)" stroke="#29423e" stroke-width="2"/><ellipse cx="268" cy="153" rx="5" ry="5" fill="#bfc3a6" /><path d="M250 148Q268 124 285 148M251 155V169M282 155V169" fill="none" stroke="#3c544d" stroke-width="5" /><ellipse cx="91" cy="234" rx="7.52" ry="7.52" fill="url(#shot)" stroke="#405650" stroke-width="1"/><ellipse cx="106.79" cy="234" rx="7.52" ry="7.52" fill="url(#shot)" stroke="#405650" stroke-width="1"/><ellipse cx="91" cy="222.72" rx="7.52" ry="7.52" fill="url(#shot)" stroke="#405650" stroke-width="1"/></g>
</svg>
