<svg xmlns="http://www.w3.org/2000/svg" viewBox="0 0 480 280" role="img" aria-labelledby="title desc" data-catalog-id="chase-18" data-kind="long">
<title id="title">18 磅艏炮</title>
<desc id="desc">舰用长短炮；18 磅追击弹；远距；炮架承重等级 3；火力 22；每炮组弹耗系数 0.62。重型护卫舰的艏追击炮，用来打断敌舰前桅。 原创结构示意，不是比例工程图。</desc>
<metadata id="naval-spec">{&quot;id&quot;:&quot;chase-18&quot;,&quot;name&quot;:&quot;18 磅艏炮&quot;,&quot;kind&quot;:&quot;long&quot;,&quot;range&quot;:&quot;long&quot;,&quot;weight&quot;:3,&quot;shot&quot;:&quot;18 磅追击弹&quot;,&quot;firepower&quot;:22,&quot;ammoCost&quot;:0.62,&quot;boarding&quot;:0}</metadata>
<defs>
  <linearGradient id="iron" x2="0" y2="1"><stop stop-color="#233943"/><stop offset=".23" stop-color="#afb8ad"/><stop offset=".5" stop-color="#5a7071"/><stop offset="1" stop-color="#1c333e"/></linearGradient>
  <linearGradient id="bronze" x2="0" y2="1"><stop stop-color="#78633e"/><stop offset=".23" stop-color="#e9cb84"/><stop offset=".57" stop-color="#a18445"/><stop offset="1" stop-color="#4d5a49"/></linearGradient>
  <linearGradient id="wood" x2=".15" y2="1"><stop stop-color="#d9b074"/><stop offset=".5" stop-color="#a97a45"/><stop offset="1" stop-color="#634c35"/></linearGradient>
  <radialGradient id="shot" cx=".3" cy=".2"><stop stop-color="#9ba89e"/><stop offset="1" stop-color="#213e45"/></radialGradient>
</defs>
<g data-mount="truck" stroke-linecap="round" stroke-linejoin="round"><ellipse cx="249" cy="245" rx="177" ry="8" fill="#274d51" opacity=".14"/><ellipse cx="197.47" cy="202" rx="16" ry="16" fill="url(#wood)" stroke="#33433c" stroke-width="2"/><ellipse cx="197.47" cy="202" rx="10.24" ry="10.24" fill="none" stroke="#765b39" stroke-width="1.5"/><ellipse cx="197.47" cy="202" rx="3" ry="3" fill="#45605d" /><ellipse cx="349.53" cy="202" rx="14" ry="14" fill="url(#wood)" stroke="#33433c" stroke-width="2"/><ellipse cx="349.53" cy="202" rx="8.96" ry="8.96" fill="none" stroke="#765b39" stroke-width="1.5"/><ellipse cx="349.53" cy="202" rx="3" ry="3" fill="#45605d" /><path d="M164.47 148H278L299 172H346.53V188H371.53V211H164.47Z" fill="url(#wood)" stroke="#2e443c" stroke-width="2" /><path d="M170.47 153H272L293 177H340.53M170.47 198H366.53" fill="none" stroke="#e2bd83" stroke-width="1.6" /><path d="M173.47 164Q204.47 159 235.47 165" fill="none" stroke="#806241" stroke-width="0.8" /><path d="M173.47 173Q204.47 168 235.47 174" fill="none" stroke="#806241" stroke-width="0.8" /><path d="M173.47 182Q204.47 177 235.47 183" fill="none" stroke="#806241" stroke-width="0.8" /><path d="M173.47 191Q204.47 186 235.47 192" fill="none" stroke="#806241" stroke-width="0.8" /><rect x="175.47" y="154" width="10" height="54" fill="url(#iron)" /><rect x="354.53" y="188" width="10" height="23" fill="url(#iron)" /><ellipse cx="191.47" cy="213" rx="19.1" ry="19.1" fill="url(#wood)" stroke="#33433c" stroke-width="2"/><ellipse cx="191.47" cy="213" rx="12.22" ry="12.22" fill="none" stroke="#765b39" stroke-width="1.5"/><ellipse cx="191.47" cy="213" rx="3" ry="3" fill="#45605d" /><ellipse cx="352.53" cy="213" rx="16.5" ry="16.5" fill="url(#wood)" stroke="#33433c" stroke-width="2"/><ellipse cx="352.53" cy="213" rx="10.56" ry="10.56" fill="none" stroke="#765b39" stroke-width="1.5"/><ellipse cx="352.53" cy="213" rx="3" ry="3" fill="#45605d" /><path d="M311 148l37 -14v22h-37Z" fill="#89663d" stroke="#35473d" stroke-width="1.4" /><g data-barrel="chase-18" transform="rotate(0 269 137)"><path d="M66.2 116.8116L82.2 117.304Q220.55599999999998 121.2432 321 112.38Q352 112.38 354 137Q352 161.62 321 161.62Q220.55599999999998 152.7568 82.2 156.696H66.2Z" fill="url(#iron)" stroke="#253c40" stroke-width="2" /><ellipse cx="359" cy="137" rx="9" ry="7" fill="url(#iron)" stroke="#33413b" stroke-width="1.5"/><rect x="66.2" y="115.3" width="5" height="43.4" fill="url(#iron)" rx="2" stroke="#4a584b" stroke-width="1"/><rect x="93.28" y="114.81" width="5" height="44.38" fill="url(#iron)" rx="2" stroke="#4a584b" stroke-width="1"/><rect x="215.14" y="112.6" width="5" height="48.8" fill="url(#iron)" rx="2" stroke="#4a584b" stroke-width="1"/><rect x="307.21" y="110.92" width="5" height="52.16" fill="url(#iron)" rx="2" stroke="#4a584b" stroke-width="1"/><path d="M79.2 124.1976Q228.68 124.1976 334 119.766" fill="none" stroke="#d3d4bd" stroke-width="1.8" /><ellipse cx="66.2" cy="137" rx="6.4" ry="22.16" fill="url(#iron)" stroke="#233a3e" stroke-width="1.8"/><ellipse cx="65.2" cy="137" rx="3.45" ry="13.54" fill="#102831" stroke="#839385" stroke-width="1"/></g><ellipse cx="268" cy="153" rx="10" ry="10" fill="url(#iron)" stroke="#29423e" stroke-width="2"/><ellipse cx="268" cy="153" rx="5" ry="5" fill="#bfc3a6" /><path d="M250 148Q268 124 285 148M251 155V169M282 155V169" fill="none" stroke="#3c544d" stroke-width="5" /><ellipse cx="91" cy="234" rx="8.96" ry="8.96" fill="url(#shot)" stroke="#405650" stroke-width="1"/><ellipse cx="109.82" cy="234" rx="8.96" ry="8.96" fill="url(#shot)" stroke="#405650" stroke-width="1"/><ellipse cx="91" cy="220.56" rx="8.96" ry="8.96" fill="url(#shot)" stroke="#405650" stroke-width="1"/></g>
</svg>
