<svg xmlns="http://www.w3.org/2000/svg" viewBox="0 0 480 280" role="img" aria-labelledby="title desc" data-catalog-id="falconet" data-kind="light">
<title id="title">隼炮</title>
<desc id="desc">轻型炮；隼炮弹；近距；炮架承重等级 1；火力 7；每炮组弹耗系数 0.2。比旋回炮略重的早期轻炮，近距驱散甲板上的水手。 原创结构示意，不是比例工程图。</desc>
<metadata id="naval-spec">{&quot;id&quot;:&quot;falconet&quot;,&quot;name&quot;:&quot;隼炮&quot;,&quot;kind&quot;:&quot;light&quot;,&quot;range&quot;:&quot;close&quot;,&quot;weight&quot;:1,&quot;shot&quot;:&quot;隼炮弹&quot;,&quot;firepower&quot;:7,&quot;ammoCost&quot;:0.2,&quot;boarding&quot;:7}</metadata>
<defs>
  <linearGradient id="iron" x2="0" y2="1"><stop stop-color="#233943"/><stop offset=".23" stop-color="#afb8ad"/><stop offset=".5" stop-color="#5a7071"/><stop offset="1" stop-color="#1c333e"/></linearGradient>
  <linearGradient id="bronze" x2="0" y2="1"><stop stop-color="#78633e"/><stop offset=".23" stop-color="#e9cb84"/><stop offset=".57" stop-color="#a18445"/><stop offset="1" stop-color="#4d5a49"/></linearGradient>
  <linearGradient id="wood" x2=".15" y2="1"><stop stop-color="#d9b074"/><stop offset=".5" stop-color="#a97a45"/><stop offset="1" stop-color="#634c35"/></linearGradient>
  <radialGradient id="shot" cx=".3" cy=".2"><stop stop-color="#9ba89e"/><stop offset="1" stop-color="#213e45"/></radialGradient>
</defs>
<g data-mount="truck" stroke-linecap="round" stroke-linejoin="round"><ellipse cx="249" cy="245" rx="177" ry="8" fill="#274d51" opacity=".14"/><ellipse cx="215.2" cy="202" rx="16" ry="16" fill="url(#wood)" stroke="#33433c" stroke-width="2"/><ellipse cx="215.2" cy="202" rx="10.24" ry="10.24" fill="none" stroke="#765b39" stroke-width="1.5"/><ellipse cx="215.2" cy="202" rx="3" ry="3" fill="#45605d" /><ellipse cx="331.8" cy="202" rx="14" ry="14" fill="url(#wood)" stroke="#33433c" stroke-width="2"/><ellipse cx="331.8" cy="202" rx="8.96" ry="8.96" fill="none" stroke="#765b39" stroke-width="1.5"/><ellipse cx="331.8" cy="202" rx="3" ry="3" fill="#45605d" /><path d="M182.2 148H278L299 172H328.79999999999995V188H353.79999999999995V211H182.2Z" fill="url(#wood)" stroke="#2e443c" stroke-width="2" /><path d="M188.2 153H272L293 177H322.79999999999995M188.2 198H348.79999999999995" fill="none" stroke="#e2bd83" stroke-width="1.6" /><path d="M191.2 164Q222.2 159 253.2 165" fill="none" stroke="#806241" stroke-width="0.8" /><path d="M191.2 173Q222.2 168 253.2 174" fill="none" stroke="#806241" stroke-width="0.8" /><path d="M191.2 182Q222.2 177 253.2 183" fill="none" stroke="#806241" stroke-width="0.8" /><path d="M191.2 191Q222.2 186 253.2 192" fill="none" stroke="#806241" stroke-width="0.8" /><rect x="193.2" y="154" width="10" height="54" fill="url(#iron)" /><rect x="336.8" y="188" width="10" height="23" fill="url(#iron)" /><ellipse cx="209.2" cy="213" rx="17.7" ry="17.7" fill="url(#wood)" stroke="#33433c" stroke-width="2"/><ellipse cx="209.2" cy="213" rx="11.33" ry="11.33" fill="none" stroke="#765b39" stroke-width="1.5"/><ellipse cx="209.2" cy="213" rx="3" ry="3" fill="#45605d" /><ellipse cx="334.8" cy="213" rx="15.5" ry="15.5" fill="url(#wood)" stroke="#33433c" stroke-width="2"/><ellipse cx="334.8" cy="213" rx="9.92" ry="9.92" fill="none" stroke="#765b39" stroke-width="1.5"/><ellipse cx="334.8" cy="213" rx="3" ry="3" fill="#45605d" /><path d="M311 148l37 -14v22h-37Z" fill="#89663d" stroke="#35473d" stroke-width="1.4" /><g data-barrel="falconet" transform="rotate(0 269 137)"><path d="M107.55 124.3146L123.55 124.624Q238.3365 127.0992 321 121.53Q352 121.53 354 137Q352 152.47 321 152.47Q238.3365 146.9008 123.55 149.376H107.55Z" fill="url(#bronze)" stroke="#253c40" stroke-width="2" /><ellipse cx="359" cy="137" rx="9" ry="7" fill="url(#bronze)" stroke="#33413b" stroke-width="1.5"/><rect x="107.55" y="122.62" width="5" height="28.76" fill="url(#bronze)" rx="2" stroke="#4a584b" stroke-width="1"/><rect x="130.5" y="122.31" width="5" height="29.38" fill="url(#bronze)" rx="2" stroke="#4a584b" stroke-width="1"/><rect x="233.75" y="120.92" width="5" height="32.16" fill="url(#bronze)" rx="2" stroke="#4a584b" stroke-width="1"/><rect x="311.76" y="119.87" width="5" height="34.26" fill="url(#bronze)" rx="2" stroke="#4a584b" stroke-width="1"/><path d="M120.55 128.9556Q245.21999999999997 128.9556 334 126.17099999999999" fill="none" stroke="#d3d4bd" stroke-width="1.8" /><ellipse cx="107.55" cy="137" rx="5" ry="13.92" fill="url(#bronze)" stroke="#233a3e" stroke-width="1.8"/><ellipse cx="106.55" cy="137" rx="2.17" ry="8.51" fill="#102831" stroke="#839385" stroke-width="1"/></g><ellipse cx="268" cy="153" rx="10" ry="10" fill="url(#iron)" stroke="#29423e" stroke-width="2"/><ellipse cx="268" cy="153" rx="5" ry="5" fill="#bfc3a6" /><path d="M250 148Q268 124 285 148M251 155V169M282 155V169" fill="none" stroke="#3c544d" stroke-width="5" /><ellipse cx="91" cy="234" rx="6.26" ry="6.26" fill="url(#shot)" stroke="#405650" stroke-width="1"/><ellipse cx="104.15" cy="234" rx="6.26" ry="6.26" fill="url(#shot)" stroke="#405650" stroke-width="1"/><ellipse cx="91" cy="224.61" rx="6.26" ry="6.26" fill="url(#shot)" stroke="#405650" stroke-width="1"/></g>
</svg>
