<svg xmlns="http://www.w3.org/2000/svg" viewBox="0 0 480 280" fill="none" role="img" aria-labelledby="title desc">
<title id="title">32 磅重长炮</title>
<desc id="desc">战列舰下层炮甲板的重型滑膛长炮：系列中最粗炮口、最厚后膛、宽炮箍与深木质炮架，配炮耳压板、实心小轮和制退绳。32 磅指弹重。原创类型示意，不是比例工程图。</desc>
<defs>
  <linearGradient id="iron" x1="0" y1="0" x2="0" y2="1"><stop stop-color="#17232c"/><stop offset=".13" stop-color="#7f8e91"/><stop offset=".28" stop-color="#b1b8b3"/><stop offset=".45" stop-color="#5d6c70"/><stop offset=".66" stop-color="#35464e"/><stop offset=".91" stop-color="#152631"/><stop offset="1" stop-color="#46565c"/></linearGradient>
  <linearGradient id="bronze" x1="0" y1="0" x2="0" y2="1"><stop stop-color="#75623a"/><stop offset=".17" stop-color="#f2d893"/><stop offset=".32" stop-color="#cfb16a"/><stop offset=".58" stop-color="#977a41"/><stop offset=".84" stop-color="#4e5543"/><stop offset="1" stop-color="#8a794c"/></linearGradient>
  <linearGradient id="band" x1="0" y1="0" x2=".22" y2="1"><stop stop-color="#d2d8ce"/><stop offset=".28" stop-color="#8b9896"/><stop offset=".7" stop-color="#3f5158"/><stop offset="1" stop-color="#162a33"/></linearGradient>
  <linearGradient id="wood" x1="0" y1="0" x2="0" y2="1"><stop stop-color="#e1b773"/><stop offset=".2" stop-color="#c79552"/><stop offset=".53" stop-color="#ab753f"/><stop offset=".77" stop-color="#c18c4b"/><stop offset="1" stop-color="#805332"/></linearGradient>
  <linearGradient id="woodDark" x1="0" y1="0" x2="0" y2="1"><stop stop-color="#a07747"/><stop offset=".45" stop-color="#6f4e31"/><stop offset="1" stop-color="#433626"/></linearGradient>
  <radialGradient id="truck" cx=".34" cy=".28" r=".8"><stop stop-color="#cfaa6e"/><stop offset=".55" stop-color="#a77e47"/><stop offset="1" stop-color="#60482f"/></radialGradient>
  <radialGradient id="shot" cx=".3" cy=".2" r=".8"><stop stop-color="#83908f"/><stop offset=".33" stop-color="#47595d"/><stop offset="1" stop-color="#142832"/></radialGradient>
  <pattern id="grain" patternUnits="userSpaceOnUse" width="101" height="31"><path d="M-9 7Q17 3 52 7T112 7M5 11Q38 8 72 12M-7 22Q17 19 42 22T111 23M52 28Q76 24 100 27" fill="none" stroke="#553d27" stroke-width="1.1" opacity=".35"/><path d="M0 9Q32 6 64 9M18 24H63" fill="none" stroke="#f5d597" stroke-width=".9" opacity=".5"/><path d="M69 16q9-5 18 0q-9 6-18 0Z" fill="none" stroke="#674523" stroke-width=".9" opacity=".55"/></pattern>
</defs>
<ellipse cx="264" cy="249" rx="183" ry="10" fill="#10232b" stroke="none" stroke-width="0" opacity=".16"/><path d="M413 136C460 157 463 197 419 216" fill="none" stroke="#54472f" stroke-width="9" stroke-linejoin="round" stroke-linecap="round" /><path d="M413 136C460 157 463 197 419 216" fill="none" stroke="#b8a174" stroke-width="5" stroke-linejoin="round" stroke-linecap="round" /><path d="M432 149l-4 5m11 3-4 4m11 5-5 3m7 9-5 2m5 10h-6m2 9-6-2m-1 10-5-3" fill="none" stroke="#665638" stroke-width="2" stroke-linejoin="round" stroke-linecap="round" /><ellipse cx="176" cy="209" rx="24.03" ry="27" fill="#5c4630" stroke="#18292c" stroke-width="2" /><ellipse cx="176" cy="209" rx="17.28" ry="20.25" fill="#85633b" stroke="#443b2c" stroke-width="1" /><ellipse cx="381" cy="209" rx="21.36" ry="24" fill="#5c4630" stroke="#18292c" stroke-width="2" /><ellipse cx="381" cy="209" rx="15.36" ry="18.0" fill="#85633b" stroke="#443b2c" stroke-width="1" /><path d="M145 132H223L244 149H365V169H410V193H145Z" fill="url(#woodDark)" stroke="#192c32" stroke-width="2" stroke-linejoin="round" stroke-linecap="round" /><path d="M152 135H219M247 152H357" fill="none" stroke="#d3aa66" stroke-width="2" stroke-linejoin="round" stroke-linecap="round" /><rect x="152" y="189" width="260" height="18" rx="2" fill="url(#woodDark)" stroke="#233136" stroke-width="2"/><path d="M132 144H220L239 162H326V176H373V190H417V213H132Z" fill="url(#wood)" stroke="#192c32" stroke-width="2" stroke-linejoin="round" stroke-linecap="round" /><path d="M132 144H220L239 162H326V176H373V190H417V213H132Z" fill="url(#grain)" stroke="none" stroke-width="0" stroke-linejoin="round" stroke-linecap="round" /><path d="M135 147H217L237 165H322M136 198H413" fill="none" stroke="#f1d193" stroke-width="1.7" stroke-linejoin="round" stroke-linecap="round" /><rect x="134" y="197" width="281" height="10" rx="2" fill="url(#band)" stroke="#233136" stroke-width="1.4"/><path d="M150 152h10v54h-10Z" fill="url(#band)" stroke="#192c32" stroke-width="1.2" stroke-linejoin="round" stroke-linecap="round" /><ellipse cx="155" cy="187" rx="3" ry="3" fill="url(#band)" stroke="#22333b" stroke-width="1" /><path d="M153.65 185.86h2.0999999999999996" fill="none" stroke="#d7d8c7" stroke-width="0.8" stroke-linejoin="round" stroke-linecap="round" /><path d="M392 193h10v13h-10Z" fill="url(#band)" stroke="#192c32" stroke-width="1.2" stroke-linejoin="round" stroke-linecap="round" /><ellipse cx="397" cy="187" rx="3" ry="3" fill="url(#band)" stroke="#22333b" stroke-width="1" /><path d="M395.65 185.86h2.0999999999999996" fill="none" stroke="#d7d8c7" stroke-width="0.8" stroke-linejoin="round" stroke-linecap="round" /><ellipse cx="425" cy="191" rx="7" ry="7" fill="none" stroke="#122a34" stroke-width="4" /><ellipse cx="425" cy="191" rx="7" ry="7" fill="none" stroke="#a9aaa0" stroke-width="2" /><path d="M421.5 186.8l2.4499999999999997 -0.84" fill="none" stroke="#e0dcca" stroke-width="1" stroke-linejoin="round" stroke-linecap="round" /><ellipse cx="176" cy="214" rx="25.81" ry="29" fill="#413727" stroke="#18292c" stroke-width="2" /><ellipse cx="171" cy="214" rx="26.1" ry="29" fill="url(#truck)" stroke="#17292e" stroke-width="2.5" /><ellipse cx="171" cy="214" rx="21.75" ry="24.94" fill="none" stroke="#d5ae6b" stroke-width="1.4" /><path d="M150.7 202.98q19.14 -4.35 40.599999999999994 0" fill="none" stroke="#6d502e" stroke-width="1" stroke-linejoin="round" stroke-linecap="round" /><path d="M150.7 221.83q19.14 -4.35 40.599999999999994 0" fill="none" stroke="#6d502e" stroke-width="1" stroke-linejoin="round" stroke-linecap="round" /><path d="M163.75 191.38l3.77 44.08" fill="none" stroke="#806038" stroke-width="0.7" stroke-linejoin="round" stroke-linecap="round" /><ellipse cx="171" cy="214" rx="7.83" ry="8.7" fill="url(#band)" stroke="#243236" stroke-width="1.8" /><ellipse cx="171" cy="214" rx="3.48" ry="4.35" fill="#c0b995" stroke="#23383c" stroke-width="1" /><path d="M169.26 209.94l-2.9000000000000004 8.41" fill="none" stroke="#172a31" stroke-width="1" stroke-linejoin="round" stroke-linecap="round" /><ellipse cx="384" cy="214" rx="23.14" ry="26" fill="#413727" stroke="#18292c" stroke-width="2" /><ellipse cx="379" cy="214" rx="23.400000000000002" ry="26" fill="url(#truck)" stroke="#17292e" stroke-width="2.5" /><ellipse cx="379" cy="214" rx="19.5" ry="22.36" fill="none" stroke="#d5ae6b" stroke-width="1.4" /><path d="M360.8 204.12q17.16 -3.9 36.4 0" fill="none" stroke="#6d502e" stroke-width="1" stroke-linejoin="round" stroke-linecap="round" /><path d="M360.8 221.02q17.16 -3.9 36.4 0" fill="none" stroke="#6d502e" stroke-width="1" stroke-linejoin="round" stroke-linecap="round" /><path d="M372.5 193.72l3.38 39.52" fill="none" stroke="#806038" stroke-width="0.7" stroke-linejoin="round" stroke-linecap="round" /><ellipse cx="379" cy="214" rx="7.0200000000000005" ry="7.8" fill="url(#band)" stroke="#243236" stroke-width="1.8" /><ellipse cx="379" cy="214" rx="3.12" ry="3.9" fill="#c0b995" stroke="#23383c" stroke-width="1" /><path d="M377.44 210.36l-2.6 7.539999999999999" fill="none" stroke="#172a31" stroke-width="1" stroke-linejoin="round" stroke-linecap="round" /><path d="M330 143l63-18v27h-63Z" fill="url(#woodDark)" stroke="#192c32" stroke-width="2" stroke-linejoin="round" stroke-linecap="round" /><path d="M26 61L43 60L55 65Q211.5 64 362 48L381 48Q401 55.74 403 83L411 84Q428 72 431 91Q428 109 411 98L403 99Q400 127.12 381 134H362Q211.5 118 55 117L43 122H26Z" fill="url(#iron)" stroke="#192c32" stroke-width="2.7" stroke-linejoin="round" stroke-linecap="round" /><path d="M53 68Q211.5 68 368 56" fill="none" stroke="#d4d9cd" stroke-width="2" stroke-linejoin="round" stroke-linecap="round" opacity=".67"/><path d="M54 114Q211.5 117 367 127" fill="none" stroke="#0a2029" stroke-width="2" stroke-linejoin="round" stroke-linecap="round" opacity=".42"/><path d="M59 57.84366576819407q5.0 -3 10 0v66.31266846361186q-5.0 3 -10 0Z" fill="url(#band)" stroke="#192c32" stroke-width="1.6" stroke-linejoin="round" stroke-linecap="round" /><path d="M61 60.84366576819407v60.31266846361186" fill="none" stroke="#cbd0c4" stroke-width="1.1" stroke-linejoin="round" stroke-linecap="round" /><path d="M191 53.21832884097035q6.0 -3 12 0v75.5633423180593q-6.0 3 -12 0Z" fill="url(#band)" stroke="#192c32" stroke-width="1.6" stroke-linejoin="round" stroke-linecap="round" /><path d="M193 56.21832884097035v69.5633423180593" fill="none" stroke="#cbd0c4" stroke-width="1.1" stroke-linejoin="round" stroke-linecap="round" /><path d="M284 49.95956873315364q6.5 -3 13 0v82.08086253369272q-6.5 3 -13 0Z" fill="url(#band)" stroke="#192c32" stroke-width="1.6" stroke-linejoin="round" stroke-linecap="round" /><path d="M286 52.95956873315364v76.08086253369272" fill="none" stroke="#cbd0c4" stroke-width="1.1" stroke-linejoin="round" stroke-linecap="round" /><path d="M367 47.05121293800539q6.0 -3 12 0v87.89757412398922q-6.0 3 -12 0Z" fill="url(#band)" stroke="#192c32" stroke-width="1.6" stroke-linejoin="round" stroke-linecap="round" /><path d="M369 50.05121293800539v81.89757412398922" fill="none" stroke="#cbd0c4" stroke-width="1.1" stroke-linejoin="round" stroke-linecap="round" /><ellipse cx="26" cy="91" rx="11" ry="31" fill="url(#iron)" stroke="#1b2a2c" stroke-width="2" /><ellipse cx="25" cy="91" rx="6.7" ry="18.3" fill="#091c25" stroke="#5d716e" stroke-width="1.6" /><path d="M23 74.5q-2 15.9 0 31.5" fill="none" stroke="#030f18" stroke-width="1.5" stroke-linejoin="round" stroke-linecap="round" /><ellipse cx="419" cy="91" rx="5" ry="7" fill="url(#iron)" stroke="#243536" stroke-width="1" /><rect x="217" y="120" width="50" height="10" rx="2" fill="url(#band)" stroke="#233136" stroke-width="1.5"/><rect x="222" y="127" width="12" height="23" rx="2" fill="url(#band)" stroke="#233136" stroke-width="1.3"/><rect x="251" y="127" width="12" height="23" rx="2" fill="url(#band)" stroke="#233136" stroke-width="1.3"/><ellipse cx="242" cy="124" rx="17" ry="17" fill="url(#band)" stroke="#132a34" stroke-width="2.3" /><ellipse cx="241" cy="123" rx="11.56" ry="11.56" fill="none" stroke="#c0c5b6" stroke-width="1.2" /><ellipse cx="228" cy="139" rx="2.6" ry="2.6" fill="url(#band)" stroke="#22333b" stroke-width="1" /><path d="M226.83 138.012h1.8199999999999998" fill="none" stroke="#d7d8c7" stroke-width="0.8" stroke-linejoin="round" stroke-linecap="round" /><ellipse cx="257" cy="139" rx="2.6" ry="2.6" fill="url(#band)" stroke="#22333b" stroke-width="1" /><path d="M255.83 138.012h1.8199999999999998" fill="none" stroke="#d7d8c7" stroke-width="0.8" stroke-linejoin="round" stroke-linecap="round" /><path d="M224 121Q242 94 260 121" fill="none" stroke="#172f37" stroke-width="6" stroke-linejoin="round" stroke-linecap="round" /><path d="M224 120Q242 94 260 120" fill="none" stroke="#a4b2ab" stroke-width="2" stroke-linejoin="round" stroke-linecap="round" /><rect x="287" y="184" width="9" height="16" rx="2" fill="url(#band)" stroke="#233136" stroke-width="1"/><ellipse cx="291.5" cy="191" rx="2.5" ry="2.5" fill="url(#band)" stroke="#22333b" stroke-width="1" /><path d="M290.375 190.05h1.75" fill="none" stroke="#d7d8c7" stroke-width="0.8" stroke-linejoin="round" stroke-linecap="round" /><rect x="323" y="184" width="9" height="16" rx="2" fill="url(#band)" stroke="#233136" stroke-width="1"/><ellipse cx="327.5" cy="191" rx="2.5" ry="2.5" fill="url(#band)" stroke="#22333b" stroke-width="1" /><path d="M326.375 190.05h1.75" fill="none" stroke="#d7d8c7" stroke-width="0.8" stroke-linejoin="round" stroke-linecap="round" /><ellipse cx="411" cy="128" rx="10" ry="10" fill="none" stroke="#122a34" stroke-width="4" /><ellipse cx="411" cy="128" rx="10" ry="10" fill="none" stroke="#a9aaa0" stroke-width="2" /><path d="M406.0 122.0l3.5 -1.2" fill="none" stroke="#e0dcca" stroke-width="1" stroke-linejoin="round" stroke-linecap="round" /><rect x="378" y="73" width="14" height="6" rx="2" fill="url(#band)" stroke="#233136" stroke-width="1"/><path d="M383 73v-8l9-3" fill="none" stroke="#8d9a96" stroke-width="3" stroke-linejoin="round" stroke-linecap="round" /><ellipse cx="75" cy="214.7" rx="14" ry="14" fill="url(#shot)" stroke="#172b33" stroke-width="1.1" /><ellipse cx="61.0" cy="235" rx="14" ry="14" fill="url(#shot)" stroke="#172b33" stroke-width="1.2" /><ellipse cx="89.42" cy="235" rx="14" ry="14" fill="url(#shot)" stroke="#172b33" stroke-width="1.2" />
</svg>
