<svg xmlns="http://www.w3.org/2000/svg" viewBox="0 0 480 280" role="img" aria-labelledby="title desc" data-catalog-id="shell-32" data-kind="mortar">
<title id="title">32 磅开花弹炮</title>
<desc id="desc">臼炮与榴弹炮；32 磅开花弹；中距；炮架承重等级 5；火力 34；每炮组弹耗系数 1.1。重型爆炸弹炮，中距破坏上层建筑，弹耗与承重都高。 原创结构示意，不是比例工程图。</desc>
<metadata id="naval-spec">{&quot;id&quot;:&quot;shell-32&quot;,&quot;name&quot;:&quot;32 磅开花弹炮&quot;,&quot;kind&quot;:&quot;mortar&quot;,&quot;range&quot;:&quot;medium&quot;,&quot;weight&quot;:5,&quot;shot&quot;:&quot;32 磅开花弹&quot;,&quot;firepower&quot;:34,&quot;ammoCost&quot;:1.1,&quot;boarding&quot;:2}</metadata>
<defs>
  <linearGradient id="iron" x2="0" y2="1"><stop stop-color="#233943"/><stop offset=".23" stop-color="#afb8ad"/><stop offset=".5" stop-color="#5a7071"/><stop offset="1" stop-color="#1c333e"/></linearGradient>
  <linearGradient id="bronze" x2="0" y2="1"><stop stop-color="#78633e"/><stop offset=".23" stop-color="#e9cb84"/><stop offset=".57" stop-color="#a18445"/><stop offset="1" stop-color="#4d5a49"/></linearGradient>
  <linearGradient id="wood" x2=".15" y2="1"><stop stop-color="#d9b074"/><stop offset=".5" stop-color="#a97a45"/><stop offset="1" stop-color="#634c35"/></linearGradient>
  <radialGradient id="shot" cx=".3" cy=".2"><stop stop-color="#9ba89e"/><stop offset="1" stop-color="#213e45"/></radialGradient>
</defs>
<g data-mount="truck" stroke-linecap="round" stroke-linejoin="round"><ellipse cx="249" cy="245" rx="177" ry="8" fill="#274d51" opacity=".14"/><ellipse cx="179.35" cy="202" rx="16" ry="16" fill="url(#wood)" stroke="#33433c" stroke-width="2"/><ellipse cx="179.35" cy="202" rx="10.24" ry="10.24" fill="none" stroke="#765b39" stroke-width="1.5"/><ellipse cx="179.35" cy="202" rx="3" ry="3" fill="#45605d" /><ellipse cx="367.65" cy="202" rx="14" ry="14" fill="url(#wood)" stroke="#33433c" stroke-width="2"/><ellipse cx="367.65" cy="202" rx="8.96" ry="8.96" fill="none" stroke="#765b39" stroke-width="1.5"/><ellipse cx="367.65" cy="202" rx="3" ry="3" fill="#45605d" /><path d="M146.35 148H278L299 172H364.65V188H389.65V211H146.35Z" fill="url(#wood)" stroke="#2e443c" stroke-width="2" /><path d="M152.35 153H272L293 177H358.65M152.35 198H384.65" fill="none" stroke="#e2bd83" stroke-width="1.6" /><path d="M155.35 164Q186.35 159 217.35 165" fill="none" stroke="#806241" stroke-width="0.8" /><path d="M155.35 173Q186.35 168 217.35 174" fill="none" stroke="#806241" stroke-width="0.8" /><path d="M155.35 182Q186.35 177 217.35 183" fill="none" stroke="#806241" stroke-width="0.8" /><path d="M155.35 191Q186.35 186 217.35 192" fill="none" stroke="#806241" stroke-width="0.8" /><rect x="157.35" y="154" width="10" height="54" fill="url(#iron)" /><rect x="372.65" y="188" width="10" height="23" fill="url(#iron)" /><ellipse cx="173.35" cy="213" rx="20.5" ry="20.5" fill="url(#wood)" stroke="#33433c" stroke-width="2"/><ellipse cx="173.35" cy="213" rx="13.12" ry="13.12" fill="none" stroke="#765b39" stroke-width="1.5"/><ellipse cx="173.35" cy="213" rx="3" ry="3" fill="#45605d" /><ellipse cx="370.65" cy="213" rx="17.5" ry="17.5" fill="url(#wood)" stroke="#33433c" stroke-width="2"/><ellipse cx="370.65" cy="213" rx="11.2" ry="11.2" fill="none" stroke="#765b39" stroke-width="1.5"/><ellipse cx="370.65" cy="213" rx="3" ry="3" fill="#45605d" /><path d="M311 148l37 -14v22h-37Z" fill="#89663d" stroke="#35473d" stroke-width="1.4" /><g data-barrel="shell-32" transform="rotate(11 269 137)"><path d="M71.1 109.8252L87.1 110.488Q222.66299999999998 115.7904 321 103.86Q352 103.86 354 137Q352 170.14 321 170.14Q222.66299999999998 158.2096 87.1 163.512H71.1Z" fill="url(#iron)" stroke="#253c40" stroke-width="2" /><ellipse cx="359" cy="137" rx="9" ry="7" fill="url(#iron)" stroke="#33413b" stroke-width="1.5"/><rect x="71.1" y="108.49" width="5" height="57.02" fill="url(#iron)" rx="2" stroke="#4a584b" stroke-width="1"/><rect x="97.69" y="107.83" width="5" height="58.34" fill="url(#iron)" rx="2" stroke="#4a584b" stroke-width="1"/><rect x="217.34" y="104.84" width="5" height="64.32" fill="url(#iron)" rx="2" stroke="#4a584b" stroke-width="1"/><rect x="307.75" y="102.59" width="5" height="68.82" fill="url(#iron)" rx="2" stroke="#4a584b" stroke-width="1"/><path d="M84.1 119.7672Q230.64 119.7672 334 113.80199999999999" fill="none" stroke="#d3d4bd" stroke-width="1.8" /><ellipse cx="71.1" cy="137" rx="8.62" ry="29.83" fill="url(#iron)" stroke="#233a3e" stroke-width="1.8"/><ellipse cx="70.1" cy="137" rx="4.64" ry="18.23" fill="#102831" stroke="#839385" stroke-width="1"/></g><ellipse cx="268" cy="153" rx="10" ry="10" fill="url(#iron)" stroke="#29423e" stroke-width="2"/><ellipse cx="268" cy="153" rx="5" ry="5" fill="#bfc3a6" /><path d="M250 148Q268 124 285 148M251 155V169M282 155V169" fill="none" stroke="#3c544d" stroke-width="5" /><ellipse cx="91" cy="234" rx="11.12" ry="11.12" fill="url(#shot)" stroke="#405650" stroke-width="1"/><ellipse cx="114.35" cy="234" rx="11.12" ry="11.12" fill="url(#shot)" stroke="#405650" stroke-width="1"/><ellipse cx="91" cy="217.32" rx="11.12" ry="11.12" fill="url(#shot)" stroke="#405650" stroke-width="1"/><path d="M91 222.88q-3 -9 6 -13" fill="none" stroke="#b7975f" stroke-width="2" /></g>
</svg>
