<svg xmlns="http://www.w3.org/2000/svg" viewBox="0 0 160 160" fill="none">
<defs><linearGradient id="metal" x2=".8" y2="1"><stop stop-color="#e2c88e"/><stop offset=".45" stop-color="#b38f53"/><stop offset="1" stop-color="#7d693f"/></linearGradient><linearGradient id="silver" x2=".8" y2="1"><stop stop-color="#d0dcce"/><stop offset=".45" stop-color="#809a94"/><stop offset="1" stop-color="#425f5e"/></linearGradient><linearGradient id="cloth" x2=".8" y2="1"><stop stop-color="#eee0ba"/><stop offset="1" stop-color="#af946c"/></linearGradient></defs>
<circle cx="80" cy="77" r="60" fill="#486760" stroke="none" stroke-width="1" opacity=".1"/><ellipse cx="80" cy="135" rx="46" ry="6" fill="#071f28" opacity=".24"/><path d="M24 114L36 99H76L89 114V130H24Z" fill="url(#metal)" stroke="#172d35" stroke-width="2" stroke-linejoin="round" stroke-linecap="round" /><path d="M24 114H89M36 99L41 114M76 99L72 114" fill="none" stroke="#d0c48d" stroke-width="1" stroke-linejoin="round" stroke-linecap="round" /><path d="M76 109L88 94H128L141 109V125H76Z" fill="url(#metal)" stroke="#172d35" stroke-width="2" stroke-linejoin="round" stroke-linecap="round" /><path d="M76 109H141M88 94L93 109M128 94L124 109" fill="none" stroke="#d0c48d" stroke-width="1" stroke-linejoin="round" stroke-linecap="round" /><path d="M47 82L59 67H99L112 82V98H47Z" fill="url(#metal)" stroke="#172d35" stroke-width="2" stroke-linejoin="round" stroke-linecap="round" /><path d="M47 82H112M59 67L64 82M99 67L95 82" fill="none" stroke="#d0c48d" stroke-width="1" stroke-linejoin="round" stroke-linecap="round" /><path d="M79 77L84 81L79 85L74 81Z" fill="#ebd89a" stroke="none" stroke-width="0" stroke-linejoin="round" stroke-linecap="round" /><path d="M51 39L54 48L64 51L54 54L51 64L48 54L38 51L48 48Z" fill="#e5c580" stroke="none" stroke-width="0" stroke-linejoin="round" stroke-linecap="round" />
</svg>
