<svg xmlns="http://www.w3.org/2000/svg" viewBox="0 0 160 160" fill="none">
<defs><linearGradient id="metal" x2=".8" y2="1"><stop stop-color="#e2c88e"/><stop offset=".45" stop-color="#b38f53"/><stop offset="1" stop-color="#7d693f"/></linearGradient><linearGradient id="silver" x2=".8" y2="1"><stop stop-color="#d0dcce"/><stop offset=".45" stop-color="#809a94"/><stop offset="1" stop-color="#425f5e"/></linearGradient><linearGradient id="cloth" x2=".8" y2="1"><stop stop-color="#eee0ba"/><stop offset="1" stop-color="#af946c"/></linearGradient></defs>
<circle cx="80" cy="77" r="60" fill="#486760" stroke="none" stroke-width="1" opacity=".1"/><ellipse cx="80" cy="135" rx="46" ry="6" fill="#071f28" opacity=".24"/><path d="M31 55Q60 29 89 48Q114 65 130 45V118Q114 139 87 121Q57 104 31 128Z" fill="#ba7a70" stroke="#172d35" stroke-width="2" stroke-linejoin="round" stroke-linecap="round" /><path d="M31 55Q61 67 91 52Q115 45 130 45M32 120Q58 93 88 115Q110 131 130 111" fill="none" stroke="#e0b095" stroke-width="3" stroke-linejoin="round" stroke-linecap="round" /><path d="M56 52Q42 84 51 113M83 52Q75 78 84 111M108 54Q100 86 109 123" fill="none" stroke="#815958" stroke-width="2" stroke-linejoin="round" stroke-linecap="round" /><path d="M63 76L69 82L63 88L57 82ZM114 86L120 92L114 98L108 92Z" fill="#dfba89" stroke="none" stroke-width="0" stroke-linejoin="round" stroke-linecap="round" />
</svg>
