<svg xmlns="http://www.w3.org/2000/svg" viewBox="0 0 640 440" role="img" aria-labelledby="title desc" data-catalog-id="armed-cutter" data-family="war" data-rig="gaff" data-masts="1" data-gun-decks="1">
<title id="title">武装快艇</title>
<desc id="desc">战舰；1 桅纵帆；1 层主炮甲板；1 个游戏炮组。通信拦截 · 近岸追逐。原创矢量侧面示意，炮门数量与尺度不代表逐炮复原。</desc>
<metadata id="naval-spec">{&quot;id&quot;:&quot;armed-cutter&quot;,&quot;name&quot;:&quot;武装快艇&quot;,&quot;family&quot;:&quot;war&quot;,&quot;rank&quot;:6,&quot;masts&quot;:1,&quot;rig&quot;:&quot;gaff&quot;,&quot;gunDecks&quot;:1,&quot;ratedGuns&quot;:0,&quot;batterySlots&quot;:1,&quot;defaultCannon&quot;:&quot;falcon&quot;,&quot;maxGunWeight&quot;:1}</metadata>
<defs>
  <linearGradient id="canvas" x2=".7" y2="1"><stop stop-color="#fff6d8"/><stop offset=".45" stop-color="#e4d1a4"/><stop offset="1" stop-color="#b2976d"/></linearGradient>
  <linearGradient id="hull" x2=".15" y2="1"><stop stop-color="#a7774c"/><stop offset=".6" stop-color="#654732"/><stop offset="1" stop-color="#283c3d"/></linearGradient>
  <linearGradient id="copper" x2="0" y2="1"><stop stop-color="#b98555"/><stop offset="1" stop-color="#48625b"/></linearGradient>
  <linearGradient id="glass" x2="1" y2="1"><stop stop-color="#adccbf"/><stop offset="1" stop-color="#28474c"/></linearGradient>
  <linearGradient id="spar"><stop stop-color="#d4b17a"/><stop offset=".45" stop-color="#977046"/><stop offset="1" stop-color="#493b2a"/></linearGradient>
</defs>
<g stroke-linecap="round" stroke-linejoin="round">
<ellipse cx="320" cy="377" rx="191.79" ry="8" fill="#568783" opacity=".12"/><path d="M129.06 377Q220 368 331 377T520.94 374M159.06 391Q270 384 482.94 389" fill="none" stroke="#9db8a5" stroke-width="1.3" /><path d="M477.94 333.04L537.94 268.04" fill="none" stroke="#674b33" stroke-width="4" /><path d="M327.23 127.47L165.06 325.04M327.23 127.47L472.94 325.04" fill="none" stroke="#9b9878" stroke-width="0.9" /><path d="M327.23 161.47L297.23 325.04" fill="none" stroke="#9f9270" stroke-width="0.7" /><path d="M327.23 161.47L312.23 325.04" fill="none" stroke="#9f9270" stroke-width="0.7" /><path d="M327.23 161.47L327.23 325.04" fill="none" stroke="#9f9270" stroke-width="0.7" /><path d="M327.23 161.47L342.23 325.04" fill="none" stroke="#9f9270" stroke-width="0.7" /><path d="M327.23 161.47L357.23 325.04" fill="none" stroke="#9f9270" stroke-width="0.7" /><path d="M321.73 191.47H332.73" fill="none" stroke="#9f9270" stroke-width="0.65" /><path d="M319.34000000000003 204.47H335.12" fill="none" stroke="#9f9270" stroke-width="0.65" /><path d="M316.96000000000004 217.47H337.5" fill="none" stroke="#9f9270" stroke-width="0.65" /><path d="M314.57 230.47H339.89000000000004" fill="none" stroke="#9f9270" stroke-width="0.65" /><path d="M312.19 243.47H342.27000000000004" fill="none" stroke="#9f9270" stroke-width="0.65" /><path d="M309.81 256.47H344.65000000000003" fill="none" stroke="#9f9270" stroke-width="0.65" /><path d="M307.42 269.47H347.04" fill="none" stroke="#9f9270" stroke-width="0.65" /><path d="M305.04 282.47H349.42" fill="none" stroke="#9f9270" stroke-width="0.65" /><path d="M302.65000000000003 295.47H351.81" fill="none" stroke="#9f9270" stroke-width="0.65" /><path d="M300.27000000000004 308.47H354.19" fill="none" stroke="#9f9270" stroke-width="0.65" /><g data-mast="1" data-sail-rig="gaff"><path d="M324.23 333.04L326.23 121.47H328.23L331.23 333.04Z" fill="url(#spar)" stroke="#514332" stroke-width="1" /><path d="M323.23 162.47L123.23000000000002 191.47Q137.23000000000002 253.04000000000002 118.23000000000002 305.04L323.23 303.04Z" fill="url(#canvas)" stroke="#89744f" stroke-width="1.2" /><path d="M324.23 160.47L117.23000000000002 192.47M324.23 305.04L113.23000000000002 306.04" fill="none" stroke="#735434" stroke-width="3.5" /><path d="M286.43 169.27L284.43 299.04" fill="none" stroke="#a18c64" stroke-width="0.8" /><path d="M245.63 175.07L243.63 299.04" fill="none" stroke="#a18c64" stroke-width="0.8" /><path d="M204.83 180.87L202.83 299.04" fill="none" stroke="#a18c64" stroke-width="0.8" /><path d="M164.03 186.67L162.03 299.04" fill="none" stroke="#a18c64" stroke-width="0.8" /><path d="M328.23 124.47Q347.23 116.47 363.23 124.47L355.23 132.47L364.23 138.47Q347.23 131.47 328.23 139.47Z" fill="#243f4b" stroke="#74634b" stroke-width="0.7" /></g>
<path d="M337.23 189.47L533.94 268.04L365.23 311.04Q350.23 266.04 337.23 189.47Z" fill="url(#canvas)" stroke="#8d7854" stroke-width="1" /><path d="M327.23 144.47L537.94 268.04" fill="none" stroke="#aaa080" stroke-width="0.8" /><g data-hull="armed-cutter"><path d="M139.06 325.04L181.06 325.04L197.06 325.04L452.94 325.04L475.94 325.04L500.94 320.04Q492.94 348 450.94 363Q320 376 180.06 364Q148.06 346 139.06 325.04Z" fill="url(#hull)" stroke="#263d3d" stroke-width="2" /><path d="M167.06 349Q320 370 475.94 343L450.94 363Q320 376 180.06 364Z" fill="url(#copper)" stroke="#7d6548" stroke-width="0.7" /><path d="M145.06 332.04H181.06L197.06 332.04H454.94L481.94 326.04" fill="none" stroke="#243f4b" stroke-width="9" /><path d="M155.06 338.04Q320 349.04 484.94 337.04" fill="none" stroke="#c39b67" stroke-width="0.65" /><path d="M160.06 342.53Q320 353.53 479.94 341.53" fill="none" stroke="#c39b67" stroke-width="0.65" /><path d="M165.06 347.02Q320 358.02 474.94 346.02" fill="none" stroke="#c39b67" stroke-width="0.65" /><path d="M170.06 351.51Q320 362.51 469.94 350.51" fill="none" stroke="#c39b67" stroke-width="0.65" /><g data-gun-deck="1"><path d="M174.06 342.04Q320 348.04 460.94 341.04" fill="none" stroke="#d7b475" stroke-width="11" /><rect x="188.06" y="337.04" width="12" height="8" fill="#172c33" rx="1" stroke="#745137" stroke-width=".8"/><path d="M190.06 340.04H203.06" fill="none" stroke="#1b3236" stroke-width="2.2" /><rect x="270.35" y="339.64" width="12" height="8" fill="#172c33" rx="1" stroke="#745137" stroke-width=".8"/><path d="M272.35 342.64000000000004H285.35" fill="none" stroke="#1b3236" stroke-width="2.2" /><rect x="352.64" y="339.64" width="12" height="8" fill="#172c33" rx="1" stroke="#745137" stroke-width=".8"/><path d="M354.64 342.64000000000004H367.64" fill="none" stroke="#1b3236" stroke-width="2.2" /></g><path d="M195.06 320.04H453.94" fill="none" stroke="#d1b482" stroke-width="1.4" /><path d="M198.06 320.04v-6" fill="none" stroke="#b99b6c" stroke-width="0.8" /><path d="M212.06 320.04v-6" fill="none" stroke="#b99b6c" stroke-width="0.8" /><path d="M226.06 320.04v-6" fill="none" stroke="#b99b6c" stroke-width="0.8" /><path d="M240.06 320.04v-6" fill="none" stroke="#b99b6c" stroke-width="0.8" /><path d="M254.06 320.04v-6" fill="none" stroke="#b99b6c" stroke-width="0.8" /><path d="M268.06 320.04v-6" fill="none" stroke="#b99b6c" stroke-width="0.8" /><path d="M282.06 320.04v-6" fill="none" stroke="#b99b6c" stroke-width="0.8" /><path d="M296.06 320.04v-6" fill="none" stroke="#b99b6c" stroke-width="0.8" /><path d="M310.06 320.04v-6" fill="none" stroke="#b99b6c" stroke-width="0.8" /><path d="M324.06 320.04v-6" fill="none" stroke="#b99b6c" stroke-width="0.8" /><path d="M338.06 320.04v-6" fill="none" stroke="#b99b6c" stroke-width="0.8" /><path d="M352.06 320.04v-6" fill="none" stroke="#b99b6c" stroke-width="0.8" /><path d="M366.06 320.04v-6" fill="none" stroke="#b99b6c" stroke-width="0.8" /><path d="M380.06 320.04v-6" fill="none" stroke="#b99b6c" stroke-width="0.8" /><path d="M394.06 320.04v-6" fill="none" stroke="#b99b6c" stroke-width="0.8" /><path d="M408.06 320.04v-6" fill="none" stroke="#b99b6c" stroke-width="0.8" /><path d="M422.06 320.04v-6" fill="none" stroke="#b99b6c" stroke-width="0.8" /><path d="M436.06 320.04v-6" fill="none" stroke="#b99b6c" stroke-width="0.8" /><path d="M450.06 320.04v-6" fill="none" stroke="#b99b6c" stroke-width="0.8" /><path d="M464.94 333.04v14m-7-5q7 14 14 0m-10-14h6" fill="none" stroke="#293f40" stroke-width="2" /></g></g>
</svg>
