<svg xmlns="http://www.w3.org/2000/svg" viewBox="0 0 640 440" role="img" aria-labelledby="title desc" data-catalog-id="caravel" data-family="exploration" data-rig="lateen" data-masts="2" data-gun-decks="0">
<title id="title">卡拉维尔轻快帆船</title>
<desc id="desc">探险船；2 桅三角帆；0 层主炮甲板；1 个游戏炮组。沿岸探索 · 灵活贸易。原创矢量侧面示意，炮门数量与尺度不代表逐炮复原。</desc>
<metadata id="naval-spec">{&quot;id&quot;:&quot;caravel&quot;,&quot;name&quot;:&quot;卡拉维尔轻快帆船&quot;,&quot;family&quot;:&quot;exploration&quot;,&quot;rank&quot;:12,&quot;masts&quot;:2,&quot;rig&quot;:&quot;lateen&quot;,&quot;gunDecks&quot;:0,&quot;ratedGuns&quot;:0,&quot;batterySlots&quot;:1,&quot;defaultCannon&quot;:&quot;culverin&quot;,&quot;maxGunWeight&quot;:2}</metadata>
<defs>
  <linearGradient id="canvas" x2=".7" y2="1"><stop stop-color="#fff6d8"/><stop offset=".45" stop-color="#e4d1a4"/><stop offset="1" stop-color="#b2976d"/></linearGradient>
  <linearGradient id="hull" x2=".15" y2="1"><stop stop-color="#a7774c"/><stop offset=".6" stop-color="#654732"/><stop offset="1" stop-color="#283c3d"/></linearGradient>
  <linearGradient id="copper" x2="0" y2="1"><stop stop-color="#b98555"/><stop offset="1" stop-color="#48625b"/></linearGradient>
  <linearGradient id="glass" x2="1" y2="1"><stop stop-color="#adccbf"/><stop offset="1" stop-color="#28474c"/></linearGradient>
  <linearGradient id="spar"><stop stop-color="#d4b17a"/><stop offset=".45" stop-color="#977046"/><stop offset="1" stop-color="#493b2a"/></linearGradient>
</defs>
<g stroke-linecap="round" stroke-linejoin="round">
<ellipse cx="320" cy="377" rx="202.24" ry="8" fill="#568783" opacity=".12"/><path d="M119.21000000000001 377Q220 368 331 377T530.79 374M149.21 391Q270 384 492.79 389" fill="none" stroke="#9db8a5" stroke-width="1.3" /><path d="M487.79 328.91L547.79 263.91" fill="none" stroke="#674b33" stroke-width="4" /><path d="M251.32 136.94L155.21 320.91M251.32 136.94L482.79 320.91" fill="none" stroke="#9b9878" stroke-width="0.9" /><path d="M251.32 170.94L221.32 320.91" fill="none" stroke="#9f9270" stroke-width="0.7" /><path d="M251.32 170.94L236.32 320.91" fill="none" stroke="#9f9270" stroke-width="0.7" /><path d="M251.32 170.94L251.32 320.91" fill="none" stroke="#9f9270" stroke-width="0.7" /><path d="M251.32 170.94L266.32 320.91" fill="none" stroke="#9f9270" stroke-width="0.7" /><path d="M251.32 170.94L281.32 320.91" fill="none" stroke="#9f9270" stroke-width="0.7" /><path d="M245.32 200.94H257.32" fill="none" stroke="#9f9270" stroke-width="0.65" /><path d="M242.72 213.94H259.92" fill="none" stroke="#9f9270" stroke-width="0.65" /><path d="M240.12 226.94H262.52" fill="none" stroke="#9f9270" stroke-width="0.65" /><path d="M237.51999999999998 239.94H265.12" fill="none" stroke="#9f9270" stroke-width="0.65" /><path d="M234.92 252.94H267.71999999999997" fill="none" stroke="#9f9270" stroke-width="0.65" /><path d="M232.32 265.94H270.32" fill="none" stroke="#9f9270" stroke-width="0.65" /><path d="M229.72 278.94H272.92" fill="none" stroke="#9f9270" stroke-width="0.65" /><path d="M227.12 291.94H275.52" fill="none" stroke="#9f9270" stroke-width="0.65" /><path d="M224.51 304.94H278.13" fill="none" stroke="#9f9270" stroke-width="0.65" /><path d="M384.88 115.83L155.21 320.91M384.88 115.83L482.79 320.91" fill="none" stroke="#9b9878" stroke-width="0.9" /><path d="M384.88 149.82999999999998L354.88 320.91" fill="none" stroke="#9f9270" stroke-width="0.7" /><path d="M384.88 149.82999999999998L369.88 320.91" fill="none" stroke="#9f9270" stroke-width="0.7" /><path d="M384.88 149.82999999999998L384.88 320.91" fill="none" stroke="#9f9270" stroke-width="0.7" /><path d="M384.88 149.82999999999998L399.88 320.91" fill="none" stroke="#9f9270" stroke-width="0.7" /><path d="M384.88 149.82999999999998L414.88 320.91" fill="none" stroke="#9f9270" stroke-width="0.7" /><path d="M379.62 179.83H390.14" fill="none" stroke="#9f9270" stroke-width="0.65" /><path d="M377.34 192.83H392.42" fill="none" stroke="#9f9270" stroke-width="0.65" /><path d="M375.06 205.83H394.7" fill="none" stroke="#9f9270" stroke-width="0.65" /><path d="M372.78 218.83H396.98" fill="none" stroke="#9f9270" stroke-width="0.65" /><path d="M370.5 231.83H399.26" fill="none" stroke="#9f9270" stroke-width="0.65" /><path d="M368.21999999999997 244.83H401.54" fill="none" stroke="#9f9270" stroke-width="0.65" /><path d="M365.94 257.83H403.82" fill="none" stroke="#9f9270" stroke-width="0.65" /><path d="M363.65999999999997 270.83H406.1" fill="none" stroke="#9f9270" stroke-width="0.65" /><path d="M361.38 283.83H408.38" fill="none" stroke="#9f9270" stroke-width="0.65" /><path d="M359.1 296.83H410.65999999999997" fill="none" stroke="#9f9270" stroke-width="0.65" /><path d="M356.82 309.83H412.94" fill="none" stroke="#9f9270" stroke-width="0.65" /><g data-mast="1" data-sail-rig="lateen"><path d="M248.32 328.91L250.32 130.94H252.32L255.32 328.91Z" fill="url(#spar)" stroke="#514332" stroke-width="1" /><path d="M150.58 155.94L352.06 195.94L184.16 303.91Q231.172 237.94 150.58 155.94Z" fill="url(#canvas)" stroke="#8c7653" stroke-width="1.2" /><path d="M145.58 153.94L357.06 197.94" fill="none" stroke="#6e5236" stroke-width="4" /><path d="M190.88 163.94L189.16 296.91" fill="none" stroke="#a28d62" stroke-width="0.7" /><path d="M231.17 171.94L194.16 296.91" fill="none" stroke="#a28d62" stroke-width="0.7" /><path d="M271.47 179.94L199.16 296.91" fill="none" stroke="#a28d62" stroke-width="0.7" /><path d="M311.76 187.94L204.16 296.91" fill="none" stroke="#a28d62" stroke-width="0.7" /><path d="M252.32 133.94Q271.32 125.94 287.32 133.94L279.32 141.94L288.32 147.94Q271.32 140.94 252.32 148.94Z" fill="#467b75" stroke="#74634b" stroke-width="0.7" /></g>
<g data-mast="2" data-sail-rig="lateen"><path d="M381.88 328.91L383.88 109.83H385.88L388.88 328.91Z" fill="url(#spar)" stroke="#514332" stroke-width="1" /><path d="M284.14 134.82999999999998L485.62 174.82999999999998L317.72 303.91Q364.73199999999997 216.82999999999998 284.14 134.82999999999998Z" fill="url(#canvas)" stroke="#8c7653" stroke-width="1.2" /><path d="M279.14 132.82999999999998L490.62 176.82999999999998" fill="none" stroke="#6e5236" stroke-width="4" /><path d="M324.44 142.83L322.72 296.91" fill="none" stroke="#a28d62" stroke-width="0.7" /><path d="M364.73 150.83L327.72 296.91" fill="none" stroke="#a28d62" stroke-width="0.7" /><path d="M405.03 158.83L332.72 296.91" fill="none" stroke="#a28d62" stroke-width="0.7" /><path d="M445.32 166.83L337.72 296.91" fill="none" stroke="#a28d62" stroke-width="0.7" /><path d="M385.88 112.83Q404.88 104.83 420.88 112.83L412.88 120.83L421.88 126.83Q404.88 119.83 385.88 127.83Z" fill="#467b75" stroke="#74634b" stroke-width="0.7" /><path d="M399.88 114.83V122.83M395.88 118.83H403.88" fill="none" stroke="#f4d691" stroke-width="1.4" /></g>
<g data-hull="caravel"><path d="M129.21 311.91L171.21 311.91L187.21 320.91L462.79 320.91L485.79 320.91L510.79 315.91Q502.79 348 460.79 363Q320 376 170.21 364Q138.21 346 129.21 311.91Z" fill="url(#hull)" stroke="#263d3d" stroke-width="2" /><path d="M157.21 349Q320 370 485.79 343L460.79 363Q320 376 170.21 364Z" fill="url(#copper)" stroke="#7d6548" stroke-width="0.7" /><path d="M135.21 318.91H171.21L187.21 327.91H464.79L491.79 321.91" fill="none" stroke="#467b75" stroke-width="9" /><path d="M145.21 333.91Q320 344.91 494.79 332.91" fill="none" stroke="#c39b67" stroke-width="0.65" /><path d="M150.21 339.43Q320 350.43 489.79 338.43" fill="none" stroke="#c39b67" stroke-width="0.65" /><path d="M155.21 344.96Q320 355.96 484.79 343.96" fill="none" stroke="#c39b67" stroke-width="0.65" /><path d="M160.21 350.48Q320 361.48 479.79 349.48" fill="none" stroke="#c39b67" stroke-width="0.65" /><path d="M132.21 311.91H173.21L184.21 319.91H137.21Z" fill="#467b75" stroke="#675439" stroke-width="1.2" /><rect x="139.21" y="314.91" width="5" height="5" fill="url(#glass)" stroke="#caa465" stroke-width="1"/><rect x="147.21" y="314.91" width="5" height="5" fill="url(#glass)" stroke="#caa465" stroke-width="1"/><rect x="155.21" y="314.91" width="5" height="5" fill="url(#glass)" stroke="#caa465" stroke-width="1"/><path d="M129.21 309.91H174.21" fill="none" stroke="#deb979" stroke-width="2.3" /><path d="M339.08 318.91v-10l12 -3" fill="none" stroke="#334b4a" stroke-width="3" /><path d="M185.21 315.91H463.79" fill="none" stroke="#d1b482" stroke-width="1.4" /><path d="M188.21 315.91v-6" fill="none" stroke="#b99b6c" stroke-width="0.8" /><path d="M202.21 315.91v-6" fill="none" stroke="#b99b6c" stroke-width="0.8" /><path d="M216.21 315.91v-6" fill="none" stroke="#b99b6c" stroke-width="0.8" /><path d="M230.21 315.91v-6" fill="none" stroke="#b99b6c" stroke-width="0.8" /><path d="M244.21 315.91v-6" fill="none" stroke="#b99b6c" stroke-width="0.8" /><path d="M258.21 315.91v-6" fill="none" stroke="#b99b6c" stroke-width="0.8" /><path d="M272.21 315.91v-6" fill="none" stroke="#b99b6c" stroke-width="0.8" /><path d="M286.21 315.91v-6" fill="none" stroke="#b99b6c" stroke-width="0.8" /><path d="M300.21 315.91v-6" fill="none" stroke="#b99b6c" stroke-width="0.8" /><path d="M314.21 315.91v-6" fill="none" stroke="#b99b6c" stroke-width="0.8" /><path d="M328.21 315.91v-6" fill="none" stroke="#b99b6c" stroke-width="0.8" /><path d="M342.21 315.91v-6" fill="none" stroke="#b99b6c" stroke-width="0.8" /><path d="M356.21 315.91v-6" fill="none" stroke="#b99b6c" stroke-width="0.8" /><path d="M370.21 315.91v-6" fill="none" stroke="#b99b6c" stroke-width="0.8" /><path d="M384.21 315.91v-6" fill="none" stroke="#b99b6c" stroke-width="0.8" /><path d="M398.21 315.91v-6" fill="none" stroke="#b99b6c" stroke-width="0.8" /><path d="M412.21 315.91v-6" fill="none" stroke="#b99b6c" stroke-width="0.8" /><path d="M426.21 315.91v-6" fill="none" stroke="#b99b6c" stroke-width="0.8" /><path d="M440.21 315.91v-6" fill="none" stroke="#b99b6c" stroke-width="0.8" /><path d="M454.21 315.91v-6" fill="none" stroke="#b99b6c" stroke-width="0.8" /><path d="M474.79 328.91v14m-7-5q7 14 14 0m-10-14h6" fill="none" stroke="#293f40" stroke-width="2" /></g></g>
</svg>
