<svg xmlns="http://www.w3.org/2000/svg" viewBox="0 0 640 440" role="img" aria-labelledby="title desc" data-catalog-id="felucca" data-family="exploration" data-rig="lateen" data-masts="1" data-gun-decks="1">
<title id="title">三角帆快船</title>
<desc id="desc">探险船；1 桅三角帆；1 层主炮甲板；1 个游戏炮组。地中海侦察 · 沿岸信使。原创矢量侧面示意，炮门数量与尺度不代表逐炮复原。</desc>
<metadata id="naval-spec">{&quot;id&quot;:&quot;felucca&quot;,&quot;name&quot;:&quot;三角帆快船&quot;,&quot;family&quot;:&quot;exploration&quot;,&quot;rank&quot;:9,&quot;masts&quot;:1,&quot;rig&quot;:&quot;lateen&quot;,&quot;gunDecks&quot;:1,&quot;ratedGuns&quot;:0,&quot;batterySlots&quot;:1,&quot;defaultCannon&quot;:&quot;saker&quot;,&quot;maxGunWeight&quot;:2}</metadata>
<defs>
  <linearGradient id="canvas" x2=".7" y2="1"><stop stop-color="#fff6d8"/><stop offset=".45" stop-color="#e4d1a4"/><stop offset="1" stop-color="#b2976d"/></linearGradient>
  <linearGradient id="hull" x2=".15" y2="1"><stop stop-color="#a7774c"/><stop offset=".6" stop-color="#654732"/><stop offset="1" stop-color="#283c3d"/></linearGradient>
  <linearGradient id="copper" x2="0" y2="1"><stop stop-color="#b98555"/><stop offset="1" stop-color="#48625b"/></linearGradient>
  <linearGradient id="glass" x2="1" y2="1"><stop stop-color="#adccbf"/><stop offset="1" stop-color="#28474c"/></linearGradient>
  <linearGradient id="spar"><stop stop-color="#d4b17a"/><stop offset=".45" stop-color="#977046"/><stop offset="1" stop-color="#493b2a"/></linearGradient>
</defs>
<g stroke-linecap="round" stroke-linejoin="round">
<ellipse cx="320" cy="377" rx="199.16" ry="8" fill="#568783" opacity=".12"/><path d="M122.12 377Q220 368 331 377T527.88 374M152.12 391Q270 384 489.88 389" fill="none" stroke="#9db8a5" stroke-width="1.3" /><path d="M484.88 330.12L544.88 265.12" fill="none" stroke="#674b33" stroke-width="4" /><path d="M327.52 119.25L158.12 322.12M327.52 119.25L479.88 322.12" fill="none" stroke="#9b9878" stroke-width="0.9" /><path d="M327.52 153.25L297.52 322.12" fill="none" stroke="#9f9270" stroke-width="0.7" /><path d="M327.52 153.25L312.52 322.12" fill="none" stroke="#9f9270" stroke-width="0.7" /><path d="M327.52 153.25L327.52 322.12" fill="none" stroke="#9f9270" stroke-width="0.7" /><path d="M327.52 153.25L342.52 322.12" fill="none" stroke="#9f9270" stroke-width="0.7" /><path d="M327.52 153.25L357.52 322.12" fill="none" stroke="#9f9270" stroke-width="0.7" /><path d="M322.19 183.25H332.84999999999997" fill="none" stroke="#9f9270" stroke-width="0.65" /><path d="M319.88 196.25H335.15999999999997" fill="none" stroke="#9f9270" stroke-width="0.65" /><path d="M317.57 209.25H337.46999999999997" fill="none" stroke="#9f9270" stroke-width="0.65" /><path d="M315.26 222.25H339.78" fill="none" stroke="#9f9270" stroke-width="0.65" /><path d="M312.95 235.25H342.09" fill="none" stroke="#9f9270" stroke-width="0.65" /><path d="M310.64 248.25H344.4" fill="none" stroke="#9f9270" stroke-width="0.65" /><path d="M308.33 261.25H346.71" fill="none" stroke="#9f9270" stroke-width="0.65" /><path d="M306.02 274.25H349.02" fill="none" stroke="#9f9270" stroke-width="0.65" /><path d="M303.71 287.25H351.33" fill="none" stroke="#9f9270" stroke-width="0.65" /><path d="M301.40999999999997 300.25H353.63" fill="none" stroke="#9f9270" stroke-width="0.65" /><path d="M299.09999999999997 313.25H355.94" fill="none" stroke="#9f9270" stroke-width="0.65" /><g data-mast="1" data-sail-rig="lateen"><path d="M324.52 330.12L326.52 113.25H328.52L331.52 330.12Z" fill="url(#spar)" stroke="#514332" stroke-width="1" /><path d="M205.12 138.25L449.92 178.25L245.92 305.12Q303.03999999999996 220.25 205.12 138.25Z" fill="url(#canvas)" stroke="#8c7653" stroke-width="1.2" /><path d="M200.12 136.25L454.92 180.25" fill="none" stroke="#6e5236" stroke-width="4" /><path d="M254.08 146.25L250.92 298.12" fill="none" stroke="#a28d62" stroke-width="0.7" /><path d="M303.04 154.25L255.92 298.12" fill="none" stroke="#a28d62" stroke-width="0.7" /><path d="M352 162.25L260.92 298.12" fill="none" stroke="#a28d62" stroke-width="0.7" /><path d="M400.96 170.25L265.92 298.12" fill="none" stroke="#a28d62" stroke-width="0.7" /><path d="M328.52 116.25Q347.52 108.25 363.52 116.25L355.52 124.25L364.52 130.25Q347.52 123.25 328.52 131.25Z" fill="#467b75" stroke="#74634b" stroke-width="0.7" /><path d="M342.52 118.25V126.25M338.52 122.25H346.52" fill="none" stroke="#f4d691" stroke-width="1.4" /></g>
<g data-hull="felucca"><path d="M132.12 322.12L174.12 322.12L190.12 322.12L459.88 322.12L482.88 322.12L507.88 317.12Q499.88 348 457.88 363Q320 376 173.12 364Q141.12 346 132.12 322.12Z" fill="url(#hull)" stroke="#263d3d" stroke-width="2" /><path d="M160.12 349Q320 370 482.88 343L457.88 363Q320 376 173.12 364Z" fill="url(#copper)" stroke="#7d6548" stroke-width="0.7" /><path d="M138.12 329.12H174.12L190.12 329.12H461.88L488.88 323.12" fill="none" stroke="#467b75" stroke-width="9" /><path d="M148.12 335.12Q320 346.12 491.88 334.12" fill="none" stroke="#c39b67" stroke-width="0.65" /><path d="M153.12 340.34Q320 351.34 486.88 339.34" fill="none" stroke="#c39b67" stroke-width="0.65" /><path d="M158.12 345.56Q320 356.56 481.88 344.56" fill="none" stroke="#c39b67" stroke-width="0.65" /><path d="M163.12 350.78Q320 361.78 476.88 349.78" fill="none" stroke="#c39b67" stroke-width="0.65" /><g data-gun-deck="1"><path d="M167.12 339.12Q320 345.12 467.88 338.12" fill="none" stroke="#d7b475" stroke-width="11" /><rect x="181.12" y="334.12" width="12" height="8" fill="#172c33" rx="1" stroke="#745137" stroke-width=".8"/><path d="M183.12 337.12H196.12" fill="none" stroke="#1b3236" stroke-width="2.2" /><rect x="268.04" y="336.72" width="12" height="8" fill="#172c33" rx="1" stroke="#745137" stroke-width=".8"/><path d="M270.04 339.72H283.04" fill="none" stroke="#1b3236" stroke-width="2.2" /><rect x="354.97" y="336.72" width="12" height="8" fill="#172c33" rx="1" stroke="#745137" stroke-width=".8"/><path d="M356.97 339.72H369.97" fill="none" stroke="#1b3236" stroke-width="2.2" /></g><path d="M188.12 317.12H460.88" fill="none" stroke="#d1b482" stroke-width="1.4" /><path d="M191.12 317.12v-6" fill="none" stroke="#b99b6c" stroke-width="0.8" /><path d="M205.12 317.12v-6" fill="none" stroke="#b99b6c" stroke-width="0.8" /><path d="M219.12 317.12v-6" fill="none" stroke="#b99b6c" stroke-width="0.8" /><path d="M233.12 317.12v-6" fill="none" stroke="#b99b6c" stroke-width="0.8" /><path d="M247.12 317.12v-6" fill="none" stroke="#b99b6c" stroke-width="0.8" /><path d="M261.12 317.12v-6" fill="none" stroke="#b99b6c" stroke-width="0.8" /><path d="M275.12 317.12v-6" fill="none" stroke="#b99b6c" stroke-width="0.8" /><path d="M289.12 317.12v-6" fill="none" stroke="#b99b6c" stroke-width="0.8" /><path d="M303.12 317.12v-6" fill="none" stroke="#b99b6c" stroke-width="0.8" /><path d="M317.12 317.12v-6" fill="none" stroke="#b99b6c" stroke-width="0.8" /><path d="M331.12 317.12v-6" fill="none" stroke="#b99b6c" stroke-width="0.8" /><path d="M345.12 317.12v-6" fill="none" stroke="#b99b6c" stroke-width="0.8" /><path d="M359.12 317.12v-6" fill="none" stroke="#b99b6c" stroke-width="0.8" /><path d="M373.12 317.12v-6" fill="none" stroke="#b99b6c" stroke-width="0.8" /><path d="M387.12 317.12v-6" fill="none" stroke="#b99b6c" stroke-width="0.8" /><path d="M401.12 317.12v-6" fill="none" stroke="#b99b6c" stroke-width="0.8" /><path d="M415.12 317.12v-6" fill="none" stroke="#b99b6c" stroke-width="0.8" /><path d="M429.12 317.12v-6" fill="none" stroke="#b99b6c" stroke-width="0.8" /><path d="M443.12 317.12v-6" fill="none" stroke="#b99b6c" stroke-width="0.8" /><path d="M457.12 317.12v-6" fill="none" stroke="#b99b6c" stroke-width="0.8" /><path d="M471.88 330.12v14m-7-5q7 14 14 0m-10-14h6" fill="none" stroke="#293f40" stroke-width="2" /></g></g>
</svg>
