<svg xmlns="http://www.w3.org/2000/svg" viewBox="0 0 640 440" role="img" aria-labelledby="title desc" data-catalog-id="survey-brig" data-family="exploration" data-rig="square" data-masts="2" data-gun-decks="1">
<title id="title">测绘双桅船</title>
<desc id="desc">探险船；2 桅横帆；1 层主炮甲板；2 个游戏炮组。海道测量 · 精密领航。原创矢量侧面示意，炮门数量与尺度不代表逐炮复原。</desc>
<metadata id="naval-spec">{&quot;id&quot;:&quot;survey-brig&quot;,&quot;name&quot;:&quot;测绘双桅船&quot;,&quot;family&quot;:&quot;exploration&quot;,&quot;rank&quot;:25,&quot;masts&quot;:2,&quot;rig&quot;:&quot;square&quot;,&quot;gunDecks&quot;:1,&quot;ratedGuns&quot;:0,&quot;batterySlots&quot;:2,&quot;defaultCannon&quot;:&quot;long-18&quot;,&quot;maxGunWeight&quot;:3}</metadata>
<defs>
  <linearGradient id="canvas" x2=".7" y2="1"><stop stop-color="#fff6d8"/><stop offset=".45" stop-color="#e4d1a4"/><stop offset="1" stop-color="#b2976d"/></linearGradient>
  <linearGradient id="hull" x2=".15" y2="1"><stop stop-color="#a7774c"/><stop offset=".6" stop-color="#654732"/><stop offset="1" stop-color="#283c3d"/></linearGradient>
  <linearGradient id="copper" x2="0" y2="1"><stop stop-color="#b98555"/><stop offset="1" stop-color="#48625b"/></linearGradient>
  <linearGradient id="glass" x2="1" y2="1"><stop stop-color="#adccbf"/><stop offset="1" stop-color="#28474c"/></linearGradient>
  <linearGradient id="spar"><stop stop-color="#d4b17a"/><stop offset=".45" stop-color="#977046"/><stop offset="1" stop-color="#493b2a"/></linearGradient>
</defs>
<g stroke-linecap="round" stroke-linejoin="round">
<ellipse cx="320" cy="377" rx="215.38" ry="8" fill="#568783" opacity=".12"/><path d="M106.81 377Q220 368 331 377T543.19 374M136.81 391Q270 384 505.19000000000005 389" fill="none" stroke="#9db8a5" stroke-width="1.3" /><path d="M500.19000000000005 323.71L560.19 258.71" fill="none" stroke="#674b33" stroke-width="4" /><path d="M246.85 123.24L142.81 315.71M246.85 123.24L495.19000000000005 315.71" fill="none" stroke="#9b9878" stroke-width="0.9" /><path d="M246.85 157.24L216.85 315.71" fill="none" stroke="#9f9270" stroke-width="0.7" /><path d="M246.85 157.24L231.85 315.71" fill="none" stroke="#9f9270" stroke-width="0.7" /><path d="M246.85 157.24L246.85 315.71" fill="none" stroke="#9f9270" stroke-width="0.7" /><path d="M246.85 157.24L261.85 315.71" fill="none" stroke="#9f9270" stroke-width="0.7" /><path d="M246.85 157.24L276.85 315.71" fill="none" stroke="#9f9270" stroke-width="0.7" /><path d="M241.17 187.24H252.53" fill="none" stroke="#9f9270" stroke-width="0.65" /><path d="M238.70999999999998 200.24H254.99" fill="none" stroke="#9f9270" stroke-width="0.65" /><path d="M236.25 213.24H257.45" fill="none" stroke="#9f9270" stroke-width="0.65" /><path d="M233.79 226.24H259.90999999999997" fill="none" stroke="#9f9270" stroke-width="0.65" /><path d="M231.32999999999998 239.24H262.37" fill="none" stroke="#9f9270" stroke-width="0.65" /><path d="M228.87 252.24H264.83" fill="none" stroke="#9f9270" stroke-width="0.65" /><path d="M226.4 265.24H267.3" fill="none" stroke="#9f9270" stroke-width="0.65" /><path d="M223.94 278.24H269.76" fill="none" stroke="#9f9270" stroke-width="0.65" /><path d="M221.48 291.24H272.21999999999997" fill="none" stroke="#9f9270" stroke-width="0.65" /><path d="M219.01999999999998 304.24H274.68" fill="none" stroke="#9f9270" stroke-width="0.65" /><path d="M389.08 101.19L142.81 315.71M389.08 101.19L495.19000000000005 315.71" fill="none" stroke="#9b9878" stroke-width="0.9" /><path d="M389.08 135.19L359.08 315.71" fill="none" stroke="#9f9270" stroke-width="0.7" /><path d="M389.08 135.19L374.08 315.71" fill="none" stroke="#9f9270" stroke-width="0.7" /><path d="M389.08 135.19L389.08 315.71" fill="none" stroke="#9f9270" stroke-width="0.7" /><path d="M389.08 135.19L404.08 315.71" fill="none" stroke="#9f9270" stroke-width="0.7" /><path d="M389.08 135.19L419.08 315.71" fill="none" stroke="#9f9270" stroke-width="0.7" /><path d="M384.09 165.19H394.07" fill="none" stroke="#9f9270" stroke-width="0.65" /><path d="M381.93 178.19H396.22999999999996" fill="none" stroke="#9f9270" stroke-width="0.65" /><path d="M379.77 191.19H398.39" fill="none" stroke="#9f9270" stroke-width="0.65" /><path d="M377.60999999999996 204.19H400.55" fill="none" stroke="#9f9270" stroke-width="0.65" /><path d="M375.45 217.19H402.71" fill="none" stroke="#9f9270" stroke-width="0.65" /><path d="M373.28999999999996 230.19H404.87" fill="none" stroke="#9f9270" stroke-width="0.65" /><path d="M371.13 243.19H407.03" fill="none" stroke="#9f9270" stroke-width="0.65" /><path d="M368.96999999999997 256.19H409.19" fill="none" stroke="#9f9270" stroke-width="0.65" /><path d="M366.81 269.19H411.34999999999997" fill="none" stroke="#9f9270" stroke-width="0.65" /><path d="M364.65 282.19H413.51" fill="none" stroke="#9f9270" stroke-width="0.65" /><path d="M362.49 295.19H415.66999999999996" fill="none" stroke="#9f9270" stroke-width="0.65" /><g data-mast="1" data-sail-rig="square"><path d="M243.85 323.71L245.85 117.24H247.85L250.85 323.71Z" fill="url(#spar)" stroke="#514332" stroke-width="1" /><path d="M185.86 133.24Q246.85 139.24 307.84 133.24Q298.84 157.65 312.84 182.06Q246.85 170.06 180.86 182.06Q195.86 157.65 185.86 133.24Z" fill="url(#canvas)" stroke="#88734f" stroke-width="1.2" /><path d="M179.86 132.24H314.84" fill="none" stroke="#5f4a31" stroke-width="4" /><path d="M180.86 131.24H313.84" fill="none" stroke="#d7b87e" stroke-width="1" /><path d="M210.26 137.24Q217.26 157.65 208.26 174.06" fill="none" stroke="#a49068" stroke-width="0.8" /><path d="M234.65 137.24Q241.65 157.65 232.65 174.06" fill="none" stroke="#a49068" stroke-width="0.8" /><path d="M259.05 137.24Q266.05 157.65 257.05 174.06" fill="none" stroke="#a49068" stroke-width="0.8" /><path d="M283.44 137.24Q290.44 157.65 281.44 174.06" fill="none" stroke="#a49068" stroke-width="0.8" /><path d="M173.6 190.06Q246.85 196.06 320.1 190.06Q311.1 214.47 325.1 238.88Q246.85 226.88 168.6 238.88Q183.6 214.47 173.6 190.06Z" fill="url(#canvas)" stroke="#88734f" stroke-width="1.2" /><path d="M167.6 189.06H327.1" fill="none" stroke="#5f4a31" stroke-width="4" /><path d="M168.6 188.06H326.1" fill="none" stroke="#d7b87e" stroke-width="1" /><path d="M202.9 194.06Q209.9 214.47 200.9 230.88" fill="none" stroke="#a49068" stroke-width="0.8" /><path d="M232.2 194.06Q239.2 214.47 230.2 230.88" fill="none" stroke="#a49068" stroke-width="0.8" /><path d="M261.49 194.06Q268.49 214.47 259.49 230.88" fill="none" stroke="#a49068" stroke-width="0.8" /><path d="M290.79 194.06Q297.79 214.47 288.79 230.88" fill="none" stroke="#a49068" stroke-width="0.8" /><path d="M161.35 246.89Q246.85 252.89 332.35 246.89Q323.35 271.3 337.35 295.71Q246.85 283.71 156.35 295.71Q171.35 271.3 161.35 246.89Z" fill="url(#canvas)" stroke="#88734f" stroke-width="1.2" /><path d="M155.35 245.89H339.35" fill="none" stroke="#5f4a31" stroke-width="4" /><path d="M156.35 244.89H338.35" fill="none" stroke="#d7b87e" stroke-width="1" /><path d="M195.55 250.89Q202.55 271.3 193.55 287.71" fill="none" stroke="#a49068" stroke-width="0.8" /><path d="M229.75 250.89Q236.75 271.3 227.75 287.71" fill="none" stroke="#a49068" stroke-width="0.8" /><path d="M263.95 250.89Q270.95 271.3 261.95 287.71" fill="none" stroke="#a49068" stroke-width="0.8" /><path d="M298.15 250.89Q305.15 271.3 296.15 287.71" fill="none" stroke="#a49068" stroke-width="0.8" /><path d="M247.85 120.24Q266.85 112.24 282.85 120.24L274.85 128.24L283.85 134.24Q266.85 127.24 247.85 135.24Z" fill="#467b75" stroke="#74634b" stroke-width="0.7" /></g>
<g data-mast="2" data-sail-rig="square"><path d="M386.08 323.71L388.08 95.19H390.08L393.08 323.71Z" fill="url(#spar)" stroke="#514332" stroke-width="1" /><path d="M328.09 111.19Q389.08 117.19 450.07 111.19Q441.07 139.275 455.07 167.36Q389.08 155.36 323.09 167.36Q338.09 139.275 328.09 111.19Z" fill="url(#canvas)" stroke="#88734f" stroke-width="1.2" /><path d="M322.09 110.19H457.07" fill="none" stroke="#5f4a31" stroke-width="4" /><path d="M323.09 109.19H456.07" fill="none" stroke="#d7b87e" stroke-width="1" /><path d="M352.49 115.19Q359.49 139.275 350.49 159.36" fill="none" stroke="#a49068" stroke-width="0.8" /><path d="M376.88 115.19Q383.88 139.275 374.88 159.36" fill="none" stroke="#a49068" stroke-width="0.8" /><path d="M401.28 115.19Q408.28 139.275 399.28 159.36" fill="none" stroke="#a49068" stroke-width="0.8" /><path d="M425.67 115.19Q432.67 139.275 423.67 159.36" fill="none" stroke="#a49068" stroke-width="0.8" /><path d="M315.83 175.36Q389.08 181.36 462.32 175.36Q453.32 203.44500000000002 467.32 231.53Q389.08 219.53 310.83 231.53Q325.83 203.44500000000002 315.83 175.36Z" fill="url(#canvas)" stroke="#88734f" stroke-width="1.2" /><path d="M309.83 174.36H469.32" fill="none" stroke="#5f4a31" stroke-width="4" /><path d="M310.83 173.36H468.32" fill="none" stroke="#d7b87e" stroke-width="1" /><path d="M345.13 179.36Q352.13 203.44500000000002 343.13 223.53" fill="none" stroke="#a49068" stroke-width="0.8" /><path d="M374.43 179.36Q381.43 203.44500000000002 372.43 223.53" fill="none" stroke="#a49068" stroke-width="0.8" /><path d="M403.72 179.36Q410.72 203.44500000000002 401.72 223.53" fill="none" stroke="#a49068" stroke-width="0.8" /><path d="M433.02 179.36Q440.02 203.44500000000002 431.02 223.53" fill="none" stroke="#a49068" stroke-width="0.8" /><path d="M303.58 239.54Q389.08 245.54 474.58 239.54Q465.58 267.625 479.58 295.71Q389.08 283.71 298.58 295.71Q313.58 267.625 303.58 239.54Z" fill="url(#canvas)" stroke="#88734f" stroke-width="1.2" /><path d="M297.58 238.54H481.58" fill="none" stroke="#5f4a31" stroke-width="4" /><path d="M298.58 237.54H480.58" fill="none" stroke="#d7b87e" stroke-width="1" /><path d="M337.78 243.54Q344.78 267.625 335.78 287.71" fill="none" stroke="#a49068" stroke-width="0.8" /><path d="M371.98 243.54Q378.98 267.625 369.98 287.71" fill="none" stroke="#a49068" stroke-width="0.8" /><path d="M406.18 243.54Q413.18 267.625 404.18 287.71" fill="none" stroke="#a49068" stroke-width="0.8" /><path d="M440.38 243.54Q447.38 267.625 438.38 287.71" fill="none" stroke="#a49068" stroke-width="0.8" /><path d="M390.08 98.19Q409.08 90.19 425.08 98.19L417.08 106.19L426.08 112.19Q409.08 105.19 390.08 113.19Z" fill="#467b75" stroke="#74634b" stroke-width="0.7" /><path d="M404.08 100.19V108.19M400.08 104.19H408.08" fill="none" stroke="#f4d691" stroke-width="1.4" /></g>
<path d="M399.08 163.19L556.19 258.71L427.08 301.71Q412.08 256.71 399.08 163.19Z" fill="url(#canvas)" stroke="#8d7854" stroke-width="1" /><path d="M389.08 118.19L560.19 258.71" fill="none" stroke="#aaa080" stroke-width="0.8" /><g data-hull="survey-brig"><path d="M116.81 306.71L158.81 306.71L174.81 315.71L475.19000000000005 315.71L498.19000000000005 315.71L523.19 310.71Q515.19 348 473.19000000000005 363Q320 376 157.81 364Q125.81 346 116.81 306.71Z" fill="url(#hull)" stroke="#263d3d" stroke-width="2" /><path d="M144.81 349Q320 370 498.19000000000005 343L473.19000000000005 363Q320 376 157.81 364Z" fill="url(#copper)" stroke="#7d6548" stroke-width="0.7" /><path d="M122.81 313.71H158.81L174.81 322.71H477.19000000000005L504.19000000000005 316.71" fill="none" stroke="#467b75" stroke-width="9" /><path d="M132.81 328.71Q320 339.71 507.19000000000005 327.71" fill="none" stroke="#c39b67" stroke-width="0.65" /><path d="M137.81 335.53Q320 346.53 502.19000000000005 334.53" fill="none" stroke="#c39b67" stroke-width="0.65" /><path d="M142.81 342.35Q320 353.35 497.19000000000005 341.35" fill="none" stroke="#c39b67" stroke-width="0.65" /><path d="M147.81 349.18Q320 360.18 492.19000000000005 348.18" fill="none" stroke="#c39b67" stroke-width="0.65" /><g data-gun-deck="1"><path d="M151.81 332.71Q320 338.71 483.19000000000005 331.71" fill="none" stroke="#d7b475" stroke-width="11" /><rect x="165.81" y="327.71" width="12" height="8" fill="#172c33" rx="1" stroke="#745137" stroke-width=".8"/><path d="M167.81 330.71H180.81" fill="none" stroke="#1b3236" stroke-width="2.2" /><rect x="238.66" y="329.83" width="12" height="8" fill="#172c33" rx="1" stroke="#745137" stroke-width=".8"/><path d="M240.66 332.83H253.66" fill="none" stroke="#1b3236" stroke-width="2.2" /><rect x="311.5" y="330.71" width="12" height="8" fill="#172c33" rx="1" stroke="#745137" stroke-width=".8"/><path d="M313.5 333.71H326.5" fill="none" stroke="#1b3236" stroke-width="2.2" /><rect x="384.35" y="329.83" width="12" height="8" fill="#172c33" rx="1" stroke="#745137" stroke-width=".8"/><path d="M386.35 332.83H399.35" fill="none" stroke="#1b3236" stroke-width="2.2" /></g><path d="M119.81 306.71H160.81L171.81 314.71H124.81Z" fill="#467b75" stroke="#675439" stroke-width="1.2" /><rect x="126.81" y="309.71" width="5" height="5" fill="url(#glass)" stroke="#caa465" stroke-width="1"/><rect x="134.81" y="309.71" width="5" height="5" fill="url(#glass)" stroke="#caa465" stroke-width="1"/><rect x="142.81" y="309.71" width="5" height="5" fill="url(#glass)" stroke="#caa465" stroke-width="1"/><path d="M116.81 304.71H161.81" fill="none" stroke="#deb979" stroke-width="2.3" /><path d="M186.81 299.71L235.81 299.71L225.81 308.71H194.81Z" fill="#ae8757" stroke="#483f30" stroke-width="1" /><path d="M191.81 297.71H230.81" fill="none" stroke="#d9bb83" stroke-width="1.5" /><path d="M172.81 310.71H476.19000000000005" fill="none" stroke="#d1b482" stroke-width="1.4" /><path d="M175.81 310.71v-6" fill="none" stroke="#b99b6c" stroke-width="0.8" /><path d="M189.81 310.71v-6" fill="none" stroke="#b99b6c" stroke-width="0.8" /><path d="M203.81 310.71v-6" fill="none" stroke="#b99b6c" stroke-width="0.8" /><path d="M217.81 310.71v-6" fill="none" stroke="#b99b6c" stroke-width="0.8" /><path d="M231.81 310.71v-6" fill="none" stroke="#b99b6c" stroke-width="0.8" /><path d="M245.81 310.71v-6" fill="none" stroke="#b99b6c" stroke-width="0.8" /><path d="M259.81 310.71v-6" fill="none" stroke="#b99b6c" stroke-width="0.8" /><path d="M273.81 310.71v-6" fill="none" stroke="#b99b6c" stroke-width="0.8" /><path d="M287.81 310.71v-6" fill="none" stroke="#b99b6c" stroke-width="0.8" /><path d="M301.81 310.71v-6" fill="none" stroke="#b99b6c" stroke-width="0.8" /><path d="M315.81 310.71v-6" fill="none" stroke="#b99b6c" stroke-width="0.8" /><path d="M329.81 310.71v-6" fill="none" stroke="#b99b6c" stroke-width="0.8" /><path d="M343.81 310.71v-6" fill="none" stroke="#b99b6c" stroke-width="0.8" /><path d="M357.81 310.71v-6" fill="none" stroke="#b99b6c" stroke-width="0.8" /><path d="M371.81 310.71v-6" fill="none" stroke="#b99b6c" stroke-width="0.8" /><path d="M385.81 310.71v-6" fill="none" stroke="#b99b6c" stroke-width="0.8" /><path d="M399.81 310.71v-6" fill="none" stroke="#b99b6c" stroke-width="0.8" /><path d="M413.81 310.71v-6" fill="none" stroke="#b99b6c" stroke-width="0.8" /><path d="M427.81 310.71v-6" fill="none" stroke="#b99b6c" stroke-width="0.8" /><path d="M441.81 310.71v-6" fill="none" stroke="#b99b6c" stroke-width="0.8" /><path d="M455.81 310.71v-6" fill="none" stroke="#b99b6c" stroke-width="0.8" /><path d="M469.81 310.71v-6" fill="none" stroke="#b99b6c" stroke-width="0.8" /><path d="M487.19000000000005 323.71v14m-7-5q7 14 14 0m-10-14h6" fill="none" stroke="#293f40" stroke-width="2" /></g></g>
</svg>
