<svg xmlns="http://www.w3.org/2000/svg" viewBox="0 0 640 440" role="img" aria-labelledby="title desc" data-catalog-id="treasure-galleon" data-family="merchant" data-rig="square" data-masts="3" data-gun-decks="1">
<title id="title">珍宝船队盖伦</title>
<desc id="desc">商船；3 桅横帆；1 层主炮甲板；3 个游戏炮组。贵金属运输 · 重护航货舰。原创矢量侧面示意，炮门数量与尺度不代表逐炮复原。</desc>
<metadata id="naval-spec">{&quot;id&quot;:&quot;treasure-galleon&quot;,&quot;name&quot;:&quot;珍宝船队盖伦&quot;,&quot;family&quot;:&quot;merchant&quot;,&quot;rank&quot;:46,&quot;masts&quot;:3,&quot;rig&quot;:&quot;square&quot;,&quot;gunDecks&quot;:1,&quot;ratedGuns&quot;:0,&quot;batterySlots&quot;:3,&quot;defaultCannon&quot;:&quot;demi-cannon&quot;,&quot;maxGunWeight&quot;:4}</metadata>
<defs>
  <linearGradient id="canvas" x2=".7" y2="1"><stop stop-color="#fff6d8"/><stop offset=".45" stop-color="#e4d1a4"/><stop offset="1" stop-color="#b2976d"/></linearGradient>
  <linearGradient id="hull" x2=".15" y2="1"><stop stop-color="#a7774c"/><stop offset=".6" stop-color="#654732"/><stop offset="1" stop-color="#283c3d"/></linearGradient>
  <linearGradient id="copper" x2="0" y2="1"><stop stop-color="#b98555"/><stop offset="1" stop-color="#48625b"/></linearGradient>
  <linearGradient id="glass" x2="1" y2="1"><stop stop-color="#adccbf"/><stop offset="1" stop-color="#28474c"/></linearGradient>
  <linearGradient id="spar"><stop stop-color="#d4b17a"/><stop offset=".45" stop-color="#977046"/><stop offset="1" stop-color="#493b2a"/></linearGradient>
</defs>
<g stroke-linecap="round" stroke-linejoin="round">
<ellipse cx="320" cy="377" rx="240.26" ry="8" fill="#568783" opacity=".12"/><path d="M83.34 377Q220 368 331 377T566.66 374M113.34 391Q270 384 528.66 389" fill="none" stroke="#9db8a5" stroke-width="1.3" /><path d="M523.66 303.88L583.66 238.88" fill="none" stroke="#674b33" stroke-width="4" /><path d="M197.6 118.31L119.34 295.88M197.6 118.31L518.66 295.88" fill="none" stroke="#9b9878" stroke-width="0.9" /><path d="M197.6 152.31L167.6 295.88" fill="none" stroke="#9f9270" stroke-width="0.7" /><path d="M197.6 152.31L182.6 295.88" fill="none" stroke="#9f9270" stroke-width="0.7" /><path d="M197.6 152.31L197.6 295.88" fill="none" stroke="#9f9270" stroke-width="0.7" /><path d="M197.6 152.31L212.6 295.88" fill="none" stroke="#9f9270" stroke-width="0.7" /><path d="M197.6 152.31L227.6 295.88" fill="none" stroke="#9f9270" stroke-width="0.7" /><path d="M191.32999999999998 182.31H203.87" fill="none" stroke="#9f9270" stroke-width="0.65" /><path d="M188.60999999999999 195.31H206.59" fill="none" stroke="#9f9270" stroke-width="0.65" /><path d="M185.9 208.31H209.29999999999998" fill="none" stroke="#9f9270" stroke-width="0.65" /><path d="M183.18 221.31H212.01999999999998" fill="none" stroke="#9f9270" stroke-width="0.65" /><path d="M180.47 234.31H214.73" fill="none" stroke="#9f9270" stroke-width="0.65" /><path d="M177.75 247.31H217.45" fill="none" stroke="#9f9270" stroke-width="0.65" /><path d="M175.03 260.31H220.17" fill="none" stroke="#9f9270" stroke-width="0.65" /><path d="M172.32 273.31H222.88" fill="none" stroke="#9f9270" stroke-width="0.65" /><path d="M169.6 286.31H225.6" fill="none" stroke="#9f9270" stroke-width="0.65" /><path d="M315.47 63.47L119.34 295.88M315.47 63.47L518.66 295.88" fill="none" stroke="#9b9878" stroke-width="0.9" /><path d="M315.47 97.47L285.47 295.88" fill="none" stroke="#9f9270" stroke-width="0.7" /><path d="M315.47 97.47L300.47 295.88" fill="none" stroke="#9f9270" stroke-width="0.7" /><path d="M315.47 97.47L315.47 295.88" fill="none" stroke="#9f9270" stroke-width="0.7" /><path d="M315.47 97.47L330.47 295.88" fill="none" stroke="#9f9270" stroke-width="0.7" /><path d="M315.47 97.47L345.47 295.88" fill="none" stroke="#9f9270" stroke-width="0.7" /><path d="M310.93 127.47H320.01000000000005" fill="none" stroke="#9f9270" stroke-width="0.65" /><path d="M308.97 140.47H321.97" fill="none" stroke="#9f9270" stroke-width="0.65" /><path d="M307 153.47H323.94000000000005" fill="none" stroke="#9f9270" stroke-width="0.65" /><path d="M305.04 166.47H325.90000000000003" fill="none" stroke="#9f9270" stroke-width="0.65" /><path d="M303.07000000000005 179.47H327.87" fill="none" stroke="#9f9270" stroke-width="0.65" /><path d="M301.11 192.47H329.83000000000004" fill="none" stroke="#9f9270" stroke-width="0.65" /><path d="M299.14000000000004 205.47H331.8" fill="none" stroke="#9f9270" stroke-width="0.65" /><path d="M297.17 218.47H333.77000000000004" fill="none" stroke="#9f9270" stroke-width="0.65" /><path d="M295.21000000000004 231.47H335.73" fill="none" stroke="#9f9270" stroke-width="0.65" /><path d="M293.24 244.47H337.70000000000005" fill="none" stroke="#9f9270" stroke-width="0.65" /><path d="M291.28000000000003 257.47H339.66" fill="none" stroke="#9f9270" stroke-width="0.65" /><path d="M289.31 270.47H341.63000000000005" fill="none" stroke="#9f9270" stroke-width="0.65" /><path d="M287.35 283.47H343.59000000000003" fill="none" stroke="#9f9270" stroke-width="0.65" /><path d="M433.33 84.93L119.34 295.88M433.33 84.93L518.66 295.88" fill="none" stroke="#9b9878" stroke-width="0.9" /><path d="M433.33 118.93L403.33 295.88" fill="none" stroke="#9f9270" stroke-width="0.7" /><path d="M433.33 118.93L418.33 295.88" fill="none" stroke="#9f9270" stroke-width="0.7" /><path d="M433.33 118.93L433.33 295.88" fill="none" stroke="#9f9270" stroke-width="0.7" /><path d="M433.33 118.93L448.33 295.88" fill="none" stroke="#9f9270" stroke-width="0.7" /><path d="M433.33 118.93L463.33 295.88" fill="none" stroke="#9f9270" stroke-width="0.7" /><path d="M428.24 148.93H438.41999999999996" fill="none" stroke="#9f9270" stroke-width="0.65" /><path d="M426.03999999999996 161.93H440.62" fill="none" stroke="#9f9270" stroke-width="0.65" /><path d="M423.84 174.93H442.82" fill="none" stroke="#9f9270" stroke-width="0.65" /><path d="M421.63 187.93H445.03" fill="none" stroke="#9f9270" stroke-width="0.65" /><path d="M419.43 200.93H447.22999999999996" fill="none" stroke="#9f9270" stroke-width="0.65" /><path d="M417.21999999999997 213.93H449.44" fill="none" stroke="#9f9270" stroke-width="0.65" /><path d="M415.02 226.93H451.64" fill="none" stroke="#9f9270" stroke-width="0.65" /><path d="M412.82 239.93H453.84" fill="none" stroke="#9f9270" stroke-width="0.65" /><path d="M410.61 252.93H456.04999999999995" fill="none" stroke="#9f9270" stroke-width="0.65" /><path d="M408.40999999999997 265.93H458.25" fill="none" stroke="#9f9270" stroke-width="0.65" /><path d="M406.2 278.93H460.46" fill="none" stroke="#9f9270" stroke-width="0.65" /><g data-mast="1" data-sail-rig="square"><path d="M194.6 303.88L196.6 112.31H198.6L201.6 303.88Z" fill="url(#spar)" stroke="#514332" stroke-width="1" /><path d="M146.93 128.31Q197.6 134.31 248.27 128.31Q239.27 143.755 253.27 159.2Q197.6 147.2 141.93 159.2Q156.93 143.755 146.93 128.31Z" fill="url(#canvas)" stroke="#88734f" stroke-width="1.2" /><path d="M140.93 127.31H255.27" fill="none" stroke="#5f4a31" stroke-width="4" /><path d="M141.93 126.31H254.27" fill="none" stroke="#d7b87e" stroke-width="1" /><path d="M167.2 132.31Q174.2 143.755 165.2 151.2" fill="none" stroke="#a49068" stroke-width="0.8" /><path d="M187.47 132.31Q194.47 143.755 185.47 151.2" fill="none" stroke="#a49068" stroke-width="0.8" /><path d="M207.74 132.31Q214.74 143.755 205.74 151.2" fill="none" stroke="#a49068" stroke-width="0.8" /><path d="M228.01 132.31Q235.01 143.755 226.01 151.2" fill="none" stroke="#a49068" stroke-width="0.8" /><path d="M138.88 167.2Q197.6 173.2 256.32 167.2Q247.32 182.64499999999998 261.32 198.09Q197.6 186.09 133.88 198.09Q148.88 182.64499999999998 138.88 167.2Z" fill="url(#canvas)" stroke="#88734f" stroke-width="1.2" /><path d="M132.88 166.2H263.32" fill="none" stroke="#5f4a31" stroke-width="4" /><path d="M133.88 165.2H262.32" fill="none" stroke="#d7b87e" stroke-width="1" /><path d="M162.37 171.2Q169.37 182.64499999999998 160.37 190.09" fill="none" stroke="#a49068" stroke-width="0.8" /><path d="M185.86 171.2Q192.86 182.64499999999998 183.86 190.09" fill="none" stroke="#a49068" stroke-width="0.8" /><path d="M209.34 171.2Q216.34 182.64499999999998 207.34 190.09" fill="none" stroke="#a49068" stroke-width="0.8" /><path d="M232.83 171.2Q239.83 182.64499999999998 230.83 190.09" fill="none" stroke="#a49068" stroke-width="0.8" /><path d="M130.84 206.09Q197.6 212.09 264.36 206.09Q255.36 221.535 269.36 236.98Q197.6 224.98 125.84 236.98Q140.84 221.535 130.84 206.09Z" fill="url(#canvas)" stroke="#88734f" stroke-width="1.2" /><path d="M124.84 205.09H271.36" fill="none" stroke="#5f4a31" stroke-width="4" /><path d="M125.84 204.09H270.36" fill="none" stroke="#d7b87e" stroke-width="1" /><path d="M157.54 210.09Q164.54 221.535 155.54 228.98" fill="none" stroke="#a49068" stroke-width="0.8" /><path d="M184.25 210.09Q191.25 221.535 182.25 228.98" fill="none" stroke="#a49068" stroke-width="0.8" /><path d="M210.95 210.09Q217.95 221.535 208.95 228.98" fill="none" stroke="#a49068" stroke-width="0.8" /><path d="M237.66 210.09Q244.66 221.535 235.66 228.98" fill="none" stroke="#a49068" stroke-width="0.8" /><path d="M122.8 244.99Q197.6 250.99 272.4 244.99Q263.4 260.435 277.4 275.88Q197.6 263.88 117.8 275.88Q132.8 260.435 122.8 244.99Z" fill="url(#canvas)" stroke="#88734f" stroke-width="1.2" /><path d="M116.8 243.99H279.4" fill="none" stroke="#5f4a31" stroke-width="4" /><path d="M117.8 242.99H278.4" fill="none" stroke="#d7b87e" stroke-width="1" /><path d="M152.72 248.99Q159.72 260.435 150.72 267.88" fill="none" stroke="#a49068" stroke-width="0.8" /><path d="M182.64 248.99Q189.64 260.435 180.64 267.88" fill="none" stroke="#a49068" stroke-width="0.8" /><path d="M212.56 248.99Q219.56 260.435 210.56 267.88" fill="none" stroke="#a49068" stroke-width="0.8" /><path d="M242.48 248.99Q249.48 260.435 240.48 267.88" fill="none" stroke="#a49068" stroke-width="0.8" /><path d="M198.6 115.31Q217.6 107.31 233.6 115.31L225.6 123.31L234.6 129.31Q217.6 122.31 198.6 130.31Z" fill="#8f6542" stroke="#74634b" stroke-width="0.7" /></g>
<g data-mast="2" data-sail-rig="square"><path d="M312.47 303.88L314.47 57.47H316.47L319.47 303.88Z" fill="url(#spar)" stroke="#514332" stroke-width="1" /><path d="M264.8 73.47Q315.47 79.47 366.15 73.47Q357.15 95.77 371.15 118.07Q315.47 106.07 259.8 118.07Q274.8 95.77 264.8 73.47Z" fill="url(#canvas)" stroke="#88734f" stroke-width="1.2" /><path d="M258.8 72.47H373.15" fill="none" stroke="#5f4a31" stroke-width="4" /><path d="M259.8 71.47H372.15" fill="none" stroke="#d7b87e" stroke-width="1" /><path d="M285.07 77.47Q292.07 95.77 283.07 110.07" fill="none" stroke="#a49068" stroke-width="0.8" /><path d="M305.34 77.47Q312.34 95.77 303.34 110.07" fill="none" stroke="#a49068" stroke-width="0.8" /><path d="M325.61 77.47Q332.61 95.77 323.61 110.07" fill="none" stroke="#a49068" stroke-width="0.8" /><path d="M345.88 77.47Q352.88 95.77 343.88 110.07" fill="none" stroke="#a49068" stroke-width="0.8" /><path d="M256.75 126.07Q315.47 132.07 374.19 126.07Q365.19 148.37 379.19 170.67Q315.47 158.67 251.75 170.67Q266.75 148.37 256.75 126.07Z" fill="url(#canvas)" stroke="#88734f" stroke-width="1.2" /><path d="M250.75 125.07H381.19" fill="none" stroke="#5f4a31" stroke-width="4" /><path d="M251.75 124.07H380.19" fill="none" stroke="#d7b87e" stroke-width="1" /><path d="M280.24 130.07Q287.24 148.37 278.24 162.67" fill="none" stroke="#a49068" stroke-width="0.8" /><path d="M303.73 130.07Q310.73 148.37 301.73 162.67" fill="none" stroke="#a49068" stroke-width="0.8" /><path d="M327.21 130.07Q334.21 148.37 325.21 162.67" fill="none" stroke="#a49068" stroke-width="0.8" /><path d="M350.7 130.07Q357.7 148.37 348.7 162.67" fill="none" stroke="#a49068" stroke-width="0.8" /><path d="M248.71 178.68Q315.47 184.68 382.23 178.68Q373.23 200.98000000000002 387.23 223.28Q315.47 211.28 243.71 223.28Q258.71000000000004 200.98000000000002 248.71 178.68Z" fill="url(#canvas)" stroke="#88734f" stroke-width="1.2" /><path d="M242.71 177.68H389.23" fill="none" stroke="#5f4a31" stroke-width="4" /><path d="M243.71 176.68H388.23" fill="none" stroke="#d7b87e" stroke-width="1" /><path d="M275.41 182.68Q282.41 200.98000000000002 273.41 215.28" fill="none" stroke="#a49068" stroke-width="0.8" /><path d="M302.12 182.68Q309.12 200.98000000000002 300.12 215.28" fill="none" stroke="#a49068" stroke-width="0.8" /><path d="M328.82 182.68Q335.82 200.98000000000002 326.82 215.28" fill="none" stroke="#a49068" stroke-width="0.8" /><path d="M355.53 182.68Q362.53 200.98000000000002 353.53 215.28" fill="none" stroke="#a49068" stroke-width="0.8" /><path d="M240.67 231.28Q315.47 237.28 390.27 231.28Q381.27 253.58 395.27 275.88Q315.47 263.88 235.67 275.88Q250.67 253.58 240.67 231.28Z" fill="url(#canvas)" stroke="#88734f" stroke-width="1.2" /><path d="M234.67 230.28H397.27" fill="none" stroke="#5f4a31" stroke-width="4" /><path d="M235.67 229.28H396.27" fill="none" stroke="#d7b87e" stroke-width="1" /><path d="M270.59 235.28Q277.59 253.58 268.59 267.88" fill="none" stroke="#a49068" stroke-width="0.8" /><path d="M300.51 235.28Q307.51 253.58 298.51 267.88" fill="none" stroke="#a49068" stroke-width="0.8" /><path d="M330.43 235.28Q337.43 253.58 328.43 267.88" fill="none" stroke="#a49068" stroke-width="0.8" /><path d="M360.35 235.28Q367.35 253.58 358.35 267.88" fill="none" stroke="#a49068" stroke-width="0.8" /><path d="M316.47 60.47Q335.47 52.47 351.47 60.47L343.47 68.47L352.47 74.47Q335.47 67.47 316.47 75.47Z" fill="#8f6542" stroke="#74634b" stroke-width="0.7" /></g>
<g data-mast="3" data-sail-rig="square"><path d="M430.33 303.88L432.33 78.93H434.33L437.33 303.88Z" fill="url(#spar)" stroke="#514332" stroke-width="1" /><path d="M382.65 94.93Q433.33 100.93 484 94.93Q475 114.55000000000001 489 134.17Q433.33 122.16999999999999 377.65 134.17Q392.65 114.55000000000001 382.65 94.93Z" fill="url(#canvas)" stroke="#88734f" stroke-width="1.2" /><path d="M376.65 93.93H491" fill="none" stroke="#5f4a31" stroke-width="4" /><path d="M377.65 92.93H490" fill="none" stroke="#d7b87e" stroke-width="1" /><path d="M402.92 98.93Q409.92 114.55000000000001 400.92 126.16999999999999" fill="none" stroke="#a49068" stroke-width="0.8" /><path d="M423.19 98.93Q430.19 114.55000000000001 421.19 126.16999999999999" fill="none" stroke="#a49068" stroke-width="0.8" /><path d="M443.46 98.93Q450.46 114.55000000000001 441.46 126.16999999999999" fill="none" stroke="#a49068" stroke-width="0.8" /><path d="M463.73 98.93Q470.73 114.55000000000001 461.73 126.16999999999999" fill="none" stroke="#a49068" stroke-width="0.8" /><path d="M374.61 142.17Q433.33 148.17 492.05 142.17Q483.05 161.79 497.05 181.41Q433.33 169.41 369.61 181.41Q384.61 161.79 374.61 142.17Z" fill="url(#canvas)" stroke="#88734f" stroke-width="1.2" /><path d="M368.61 141.17H499.05" fill="none" stroke="#5f4a31" stroke-width="4" /><path d="M369.61 140.17H498.05" fill="none" stroke="#d7b87e" stroke-width="1" /><path d="M398.1 146.17Q405.1 161.79 396.1 173.41" fill="none" stroke="#a49068" stroke-width="0.8" /><path d="M421.59 146.17Q428.59 161.79 419.59 173.41" fill="none" stroke="#a49068" stroke-width="0.8" /><path d="M445.07 146.17Q452.07 161.79 443.07 173.41" fill="none" stroke="#a49068" stroke-width="0.8" /><path d="M468.56 146.17Q475.56 161.79 466.56 173.41" fill="none" stroke="#a49068" stroke-width="0.8" /><path d="M366.57 189.41Q433.33 195.41 500.09 189.41Q491.09 209.03 505.09 228.65Q433.33 216.65 361.57 228.65Q376.57 209.03 366.57 189.41Z" fill="url(#canvas)" stroke="#88734f" stroke-width="1.2" /><path d="M360.57 188.41H507.09" fill="none" stroke="#5f4a31" stroke-width="4" /><path d="M361.57 187.41H506.09" fill="none" stroke="#d7b87e" stroke-width="1" /><path d="M393.27 193.41Q400.27 209.03 391.27 220.65" fill="none" stroke="#a49068" stroke-width="0.8" /><path d="M419.98 193.41Q426.98 209.03 417.98 220.65" fill="none" stroke="#a49068" stroke-width="0.8" /><path d="M446.68 193.41Q453.68 209.03 444.68 220.65" fill="none" stroke="#a49068" stroke-width="0.8" /><path d="M473.39 193.41Q480.39 209.03 471.39 220.65" fill="none" stroke="#a49068" stroke-width="0.8" /><path d="M358.53 236.64Q433.33 242.64 508.13 236.64Q499.13 256.26 513.13 275.88Q433.33 263.88 353.53 275.88Q368.53 256.26 358.53 236.64Z" fill="url(#canvas)" stroke="#88734f" stroke-width="1.2" /><path d="M352.53 235.64H515.13" fill="none" stroke="#5f4a31" stroke-width="4" /><path d="M353.53 234.64H514.13" fill="none" stroke="#d7b87e" stroke-width="1" /><path d="M388.45 240.64Q395.45 256.26 386.45 267.88" fill="none" stroke="#a49068" stroke-width="0.8" /><path d="M418.37 240.64Q425.37 256.26 416.37 267.88" fill="none" stroke="#a49068" stroke-width="0.8" /><path d="M448.29 240.64Q455.29 256.26 446.29 267.88" fill="none" stroke="#a49068" stroke-width="0.8" /><path d="M478.21 240.64Q485.21 256.26 476.21 267.88" fill="none" stroke="#a49068" stroke-width="0.8" /><path d="M434.33 81.93Q453.33 73.93 469.33 81.93L461.33 89.93L470.33 95.93Q453.33 88.93 434.33 96.93Z" fill="#8f6542" stroke="#74634b" stroke-width="0.7" /></g>
<path d="M443.33 146.93L579.66 238.88L471.33 281.88Q456.33 236.88 443.33 146.93Z" fill="url(#canvas)" stroke="#8d7854" stroke-width="1" /><path d="M433.33 101.93L583.66 238.88" fill="none" stroke="#aaa080" stroke-width="0.8" /><g data-hull="treasure-galleon"><path d="M93.34 277.88L135.34 277.88L151.34 295.88L498.65999999999997 295.88L521.66 284.88L546.66 279.88Q538.66 348 496.65999999999997 363Q320 376 134.34 364Q102.34 346 93.34 277.88Z" fill="url(#hull)" stroke="#263d3d" stroke-width="2" /><path d="M121.34 349Q320 370 521.66 343L496.65999999999997 363Q320 376 134.34 364Z" fill="url(#copper)" stroke="#7d6548" stroke-width="0.7" /><path d="M99.34 284.88H135.34L151.34 302.88H500.65999999999997L527.66 285.88" fill="none" stroke="#8f6542" stroke-width="9" /><path d="M109.34 308.88Q320 319.88 530.66 307.88" fill="none" stroke="#c39b67" stroke-width="0.65" /><path d="M114.34 320.66Q320 331.66 525.66 319.66" fill="none" stroke="#c39b67" stroke-width="0.65" /><path d="M119.34 332.44Q320 343.44 520.66 331.44" fill="none" stroke="#c39b67" stroke-width="0.65" /><path d="M124.34 344.22Q320 355.22 515.66 343.22" fill="none" stroke="#c39b67" stroke-width="0.65" /><g data-gun-deck="1"><path d="M128.34 312.88Q320 318.88 506.65999999999997 311.88" fill="none" stroke="#d7b475" stroke-width="11" /><rect x="142.34" y="307.88" width="12" height="8" fill="#172c33" rx="1" stroke="#745137" stroke-width=".8"/><path d="M144.34 310.88H157.34" fill="none" stroke="#1b3236" stroke-width="2.2" /><rect x="198.73" y="309.38" width="12" height="8" fill="#172c33" rx="1" stroke="#745137" stroke-width=".8"/><path d="M200.73 312.38H213.73" fill="none" stroke="#1b3236" stroke-width="2.2" /><rect x="255.11" y="310.48" width="12" height="8" fill="#172c33" rx="1" stroke="#745137" stroke-width=".8"/><path d="M257.11 313.48H270.11" fill="none" stroke="#1b3236" stroke-width="2.2" /><rect x="311.5" y="310.88" width="12" height="8" fill="#172c33" rx="1" stroke="#745137" stroke-width=".8"/><path d="M313.5 313.88H326.5" fill="none" stroke="#1b3236" stroke-width="2.2" /><rect x="367.89" y="310.48" width="12" height="8" fill="#172c33" rx="1" stroke="#745137" stroke-width=".8"/><path d="M369.89 313.48H382.89" fill="none" stroke="#1b3236" stroke-width="2.2" /><rect x="424.27" y="309.38" width="12" height="8" fill="#172c33" rx="1" stroke="#745137" stroke-width=".8"/><path d="M426.27 312.38H439.27" fill="none" stroke="#1b3236" stroke-width="2.2" /></g><path d="M96.34 277.88H137.34L148.34 294.88H101.34Z" fill="#8f6542" stroke="#675439" stroke-width="1.2" /><rect x="103.34" y="280.88" width="5" height="9" fill="url(#glass)" stroke="#caa465" stroke-width="1"/><rect x="111.34" y="280.88" width="5" height="9" fill="url(#glass)" stroke="#caa465" stroke-width="1"/><rect x="119.34" y="280.88" width="5" height="9" fill="url(#glass)" stroke="#caa465" stroke-width="1"/><rect x="127.34" y="280.88" width="5" height="9" fill="url(#glass)" stroke="#caa465" stroke-width="1"/><path d="M93.34 275.88H138.34" fill="none" stroke="#deb979" stroke-width="2.3" /><rect x="159.34" y="284.88" width="23" height="10" fill="#83613f" stroke="#d5b482" stroke-width="1"/><path d="M163.34 285.88L178.34 293.88M178.34 285.88L163.34 293.88" fill="none" stroke="#b99968" stroke-width="0.8" /><rect x="189.34" y="284.88" width="23" height="10" fill="#83613f" stroke="#d5b482" stroke-width="1"/><path d="M193.34 285.88L208.34 293.88M208.34 285.88L193.34 293.88" fill="none" stroke="#b99968" stroke-width="0.8" /><rect x="219.34" y="284.88" width="23" height="10" fill="#83613f" stroke="#d5b482" stroke-width="1"/><path d="M223.34 285.88L238.34 293.88M238.34 285.88L223.34 293.88" fill="none" stroke="#b99968" stroke-width="0.8" /><path d="M149.34 290.88H499.65999999999997" fill="none" stroke="#d1b482" stroke-width="1.4" /><path d="M152.34 290.88v-6" fill="none" stroke="#b99b6c" stroke-width="0.8" /><path d="M166.34 290.88v-6" fill="none" stroke="#b99b6c" stroke-width="0.8" /><path d="M180.34 290.88v-6" fill="none" stroke="#b99b6c" stroke-width="0.8" /><path d="M194.34 290.88v-6" fill="none" stroke="#b99b6c" stroke-width="0.8" /><path d="M208.34 290.88v-6" fill="none" stroke="#b99b6c" stroke-width="0.8" /><path d="M222.34 290.88v-6" fill="none" stroke="#b99b6c" stroke-width="0.8" /><path d="M236.34 290.88v-6" fill="none" stroke="#b99b6c" stroke-width="0.8" /><path d="M250.34 290.88v-6" fill="none" stroke="#b99b6c" stroke-width="0.8" /><path d="M264.34 290.88v-6" fill="none" stroke="#b99b6c" stroke-width="0.8" /><path d="M278.34 290.88v-6" fill="none" stroke="#b99b6c" stroke-width="0.8" /><path d="M292.34 290.88v-6" fill="none" stroke="#b99b6c" stroke-width="0.8" /><path d="M306.34 290.88v-6" fill="none" stroke="#b99b6c" stroke-width="0.8" /><path d="M320.34 290.88v-6" fill="none" stroke="#b99b6c" stroke-width="0.8" /><path d="M334.34 290.88v-6" fill="none" stroke="#b99b6c" stroke-width="0.8" /><path d="M348.34 290.88v-6" fill="none" stroke="#b99b6c" stroke-width="0.8" /><path d="M362.34 290.88v-6" fill="none" stroke="#b99b6c" stroke-width="0.8" /><path d="M376.34 290.88v-6" fill="none" stroke="#b99b6c" stroke-width="0.8" /><path d="M390.34 290.88v-6" fill="none" stroke="#b99b6c" stroke-width="0.8" /><path d="M404.34 290.88v-6" fill="none" stroke="#b99b6c" stroke-width="0.8" /><path d="M418.34 290.88v-6" fill="none" stroke="#b99b6c" stroke-width="0.8" /><path d="M432.34 290.88v-6" fill="none" stroke="#b99b6c" stroke-width="0.8" /><path d="M446.34 290.88v-6" fill="none" stroke="#b99b6c" stroke-width="0.8" /><path d="M460.34 290.88v-6" fill="none" stroke="#b99b6c" stroke-width="0.8" /><path d="M474.34 290.88v-6" fill="none" stroke="#b99b6c" stroke-width="0.8" /><path d="M488.34 290.88v-6" fill="none" stroke="#b99b6c" stroke-width="0.8" /><path d="M502.34 290.88v-6" fill="none" stroke="#b99b6c" stroke-width="0.8" /><path d="M510.65999999999997 303.88v14m-7-5q7 14 14 0m-10-14h6" fill="none" stroke="#293f40" stroke-width="2" /></g></g>
</svg>
